# Blender 4.3.2
# www.blender.org
mtllib stove.mtl
o Cube
v 2.786202 0.859468 -0.985071
v 2.786202 0.829609 -0.985071
v 2.771273 0.829609 -1.000000
v 2.771273 0.859468 -1.000000
v 2.771273 -1.000000 -0.985071
v 2.771273 -0.985071 -1.000000
v 2.786202 -0.985071 -0.985071
v 2.510851 0.859468 1.000000
v 2.480992 0.859468 1.000000
v 2.476129 0.840477 0.985634
v 2.491672 0.825024 0.985688
v 2.510851 0.829609 1.000000
v 2.771273 -0.985071 1.000000
v 2.771273 -1.000000 0.985071
v 2.786202 -0.985071 0.985071
v -0.985071 0.829609 1.000000
v -0.985071 0.859468 1.000000
v -1.000000 0.859468 0.985071
v -1.000000 0.829609 0.985071
v -0.985071 -0.985071 -1.000000
v -0.985071 -1.000000 -0.985071
v -1.000000 -0.985071 -0.985071
v 2.786202 0.859468 0.695100
v 2.786202 0.859468 0.724959
v 2.786202 0.829609 0.724959
v 2.786202 0.829609 0.695100
v -1.000000 -0.985071 0.985071
v -0.985071 -1.000000 0.985071
v -0.985071 -0.985071 1.000000
v 2.786202 0.859468 0.985071
v 2.771273 0.859468 1.000000
v 2.771273 0.829609 1.000000
v 2.786202 0.829609 0.985071
v -1.000000 0.829609 0.695100
v -1.000000 0.829609 0.724959
v -1.000000 0.859468 0.724959
v -1.000000 0.859468 0.695100
v 2.626132 0.829609 1.000000
v 2.655991 0.829609 1.000000
v 2.655991 0.859468 1.000000
v 2.626132 0.859468 1.000000
v 2.510851 0.829609 -1.000000
v 2.480992 0.829609 -1.000000
v 2.480992 0.859468 -1.000000
v 2.510851 0.859468 -1.000000
v 2.628080 0.976086 0.820941
v 2.598433 0.973831 0.791124
v 2.577317 0.973493 0.812229
v 2.607126 0.975756 0.841915
v -0.820923 0.975756 0.841915
v -0.791115 0.973493 0.812229
v -0.812231 0.973831 0.791123
v -0.841878 0.976086 0.820942
v 2.607176 1.000000 -0.842087
v 2.592630 1.014929 -0.827100
v 2.597663 1.014538 -0.816262
v 2.598433 0.999662 -0.791123
v 2.628288 0.999662 -0.820978
v -0.842086 0.999662 -0.820978
v -0.812231 0.999662 -0.791123
v -0.811461 1.014538 -0.816262
v -0.806428 1.014929 -0.827100
v -0.820974 1.000000 -0.842087
v 2.533569 0.891062 0.732733
v 2.515496 0.876808 0.729585
v 2.518369 0.887887 0.747321
v -0.772085 0.936803 0.786868
v -0.772085 0.951954 0.772000
v -0.787015 0.937024 0.771940
v 2.573217 0.975127 -0.786928
v 2.558288 0.974905 -0.772000
v 2.573217 0.975127 -0.786928
v -0.787015 0.975127 -0.786928
v -0.772085 0.974905 -0.772000
v -0.787015 0.975127 -0.786928
v -1.000000 -0.985071 0.724959
v -1.000000 -0.985071 0.695100
v -0.985071 -1.000000 0.695100
v -0.985071 -1.000000 0.724959
v 2.480992 0.623456 -1.000000
v 2.480992 0.653315 -1.000000
v 2.510851 0.653315 -1.000000
v 2.510851 0.623456 -1.000000
v -1.000000 0.653315 -0.985071
v -0.985071 0.653315 -1.000000
v -0.985071 0.623456 -1.000000
v -1.000000 0.623456 -0.985071
v 2.786202 -0.985071 0.695100
v 2.786202 -0.985071 0.724959
v 2.771273 -1.000000 0.724959
v 2.771273 -1.000000 0.695100
v 2.628140 0.978982 0.616029
v 2.628140 0.979566 0.579573
v 2.598432 0.977630 0.558400
v 2.598432 0.977043 0.595013
v -0.841938 0.979566 0.579573
v -0.841938 0.978982 0.616029
v -0.812230 0.977043 0.595014
v -0.812230 0.977630 0.558401
v 2.626132 0.653315 -1.000000
v 2.655991 0.653315 -1.000000
v 2.655991 0.623456 -1.000000
v 2.626132 0.623456 -1.000000
v 2.786202 0.653315 -0.985071
v 2.786202 0.623456 -0.985071
v 2.771273 0.623456 -1.000000
v 2.771273 0.653315 -1.000000
v 2.536169 0.919110 0.612885
v 2.519795 0.921664 0.596391
v 2.515496 0.904164 0.616085
v -0.772085 0.954902 0.573670
v -0.772085 0.955346 0.543814
v -0.787015 0.940415 0.543772
v -0.787015 0.939972 0.573629
v 2.510851 -0.985071 -1.000000
v 2.510851 -1.000000 -0.985071
v 2.480992 -1.000000 -0.985071
v 2.480992 -0.985071 -1.000000
v 2.491672 0.657900 0.985688
v 2.476129 0.642447 0.985634
v 2.480992 0.623456 1.000000
v 2.510851 0.623456 1.000000
v 2.510851 0.653315 1.000000
v 2.480992 -0.985071 1.000000
v 2.480992 -1.000000 0.985071
v 2.510851 -1.000000 0.985071
v 2.510851 -0.985071 1.000000
v -1.000000 0.623456 0.724959
v -1.000000 0.653315 0.724959
v -1.000000 0.653315 0.695100
v -1.000000 0.623456 0.695100
v 2.381545 0.975756 0.841915
v 2.356504 0.973493 0.812229
v 2.317379 0.973493 0.812229
v 2.342609 0.975756 0.841915
v 2.342661 1.000000 -0.842087
v 2.329843 1.014929 -0.827100
v 2.360874 1.014929 -0.827100
v 2.381784 1.000000 -0.842087
v -1.000000 0.653315 0.985071
v -1.000000 0.623456 0.985071
v -0.985071 0.623456 1.000000
v -0.985071 0.653315 1.000000
v 2.295980 1.014929 -0.787073
v 2.300665 0.985071 -0.786962
v 2.330524 0.985071 -0.786962
v 2.326958 1.014929 -0.787073
v 2.372408 0.937432 0.738061
v 2.357479 0.937877 0.723138
v 2.342555 0.952897 0.733725
v 2.365153 0.952196 0.753434
v 2.300665 0.990056 -0.786980
v 2.300665 0.974905 -0.772000
v 2.330524 0.974905 -0.772000
v 2.330524 0.990056 -0.786980
v 2.247955 1.304333 -0.825971
v 2.227045 1.319262 -0.810984
v 2.266168 1.319262 -0.810984
v 2.278986 1.304333 -0.825971
v 2.216003 1.304333 -0.788201
v 2.246981 1.304333 -0.788201
v 2.259568 1.319262 -0.803189
v 2.220445 1.319262 -0.803189
v 2.357479 0.939134 0.680949
v 2.372408 0.939579 0.666027
v 2.369717 0.954546 0.651542
v 2.342682 0.952475 0.667904
v 2.510851 -1.000000 0.724959
v 2.480992 -1.000000 0.724959
v 2.480992 -1.000000 0.695100
v 2.510851 -1.000000 0.695100
v 2.573217 0.939972 0.573629
v 2.573217 0.940415 0.543772
v 2.558288 0.955346 0.543814
v 2.537174 0.954902 0.573670
v 2.558288 0.954588 0.594781
v 2.573217 0.937024 0.771940
v 2.558288 0.952268 0.750889
v 2.537174 0.951954 0.772000
v 2.558288 0.936803 0.786868
v 2.300665 0.954902 0.573670
v 2.330524 0.954588 0.594781
v 2.351637 0.954902 0.573670
v 2.330524 0.955346 0.543814
v 2.300665 0.955346 0.543814
v 2.330524 0.936803 0.786868
v 2.351637 0.951954 0.772000
v 2.330524 0.952268 0.750889
v 2.300665 0.951954 0.772000
v 2.300665 0.936803 0.786868
v 2.655991 -0.985071 1.000000
v 2.626132 -0.985071 1.000000
v 2.626132 -1.000000 0.985071
v 2.655991 -1.000000 0.985071
v 2.786202 0.653315 0.724959
v 2.786202 0.623456 0.724959
v 2.786202 0.623456 0.695100
v 2.786202 0.653315 0.695100
v 2.515576 1.000000 -0.842087
v 2.474936 1.000000 -0.842087
v 2.461241 1.014929 -0.827100
v 2.492489 1.014929 -0.827100
v 2.424314 1.014929 -0.787073
v 2.429476 0.985071 -0.786962
v 2.459335 0.985071 -0.786962
v 2.455499 1.014929 -0.787073
v 2.459335 0.974905 -0.772000
v 2.459335 0.990056 -0.786980
v 2.429476 0.990056 -0.786980
v 2.429476 0.974905 -0.772000
v 2.348850 1.319262 -0.810984
v 2.389490 1.319262 -0.810984
v 2.403186 1.304333 -0.825971
v 2.371938 1.304333 -0.825971
v 2.337095 1.304333 -0.788201
v 2.368280 1.304333 -0.788201
v 2.382293 1.319262 -0.803189
v 2.341653 1.319262 -0.803189
v 2.459335 0.955346 0.543814
v 2.429476 0.955346 0.543814
v 2.429476 0.954902 0.573670
v 2.459335 0.954902 0.573670
v 2.626132 -1.000000 -0.985071
v 2.626132 -0.985071 -1.000000
v 2.655991 -0.985071 -1.000000
v 2.655991 -1.000000 -0.985071
v 2.655991 0.623456 1.000000
v 2.655991 0.653315 1.000000
v 2.626132 0.653315 1.000000
v 2.626132 0.623456 1.000000
v 2.474885 0.975756 0.841915
v 2.515310 0.975756 0.841915
v 2.488007 0.973493 0.812229
v 2.447367 0.973493 0.812229
v 2.771273 0.623456 1.000000
v 2.786202 0.623456 0.985071
v 2.786202 0.653315 0.985071
v 2.771273 0.653315 1.000000
v 2.429476 0.936803 0.786868
v 2.459335 0.936803 0.786868
v 2.459335 0.951954 0.772000
v 2.429476 0.951954 0.772000
v 2.626132 -1.000000 0.724959
v 2.626132 -1.000000 0.695100
v 2.655991 -1.000000 0.695100
v 2.655991 -1.000000 0.724959
v 2.413006 0.939579 0.666027
v 2.427935 0.939134 0.680949
v 2.442732 0.952475 0.667904
v 2.415697 0.954546 0.651542
v 2.413006 0.937432 0.738061
v 2.420261 0.952196 0.753434
v 2.442859 0.952897 0.733725
v 2.427935 0.937877 0.723138
v 2.473841 0.887887 0.747321
v 2.476713 0.876808 0.729585
v 2.458641 0.891062 0.732733
v 2.370052 0.952268 0.746589
v 2.355937 0.952713 0.715011
v 2.326079 0.952202 0.755334
v 2.347192 0.951888 0.776445
v 2.355911 0.953396 0.734587
v 2.359220 0.954702 0.599082
v 2.347192 0.954968 0.569225
v 2.326079 0.954654 0.590336
v 2.472414 0.921664 0.596391
v 2.456040 0.919110 0.612884
v 2.476713 0.904164 0.616085
v 2.413006 0.863901 0.735869
v 2.427935 0.864346 0.720946
v 2.413006 0.849423 0.720502
v 2.372408 0.863901 0.735869
v 2.372408 0.849423 0.720502
v 2.357479 0.864346 0.720946
v 2.357479 0.865604 0.678758
v 2.372408 0.850681 0.678313
v 2.372408 0.866048 0.663835
v 2.413006 0.866048 0.663835
v 2.413006 0.850681 0.678313
v 2.427935 0.865604 0.678758
v 2.542609 0.940435 0.605239
v 2.562733 0.954654 0.590336
v 2.541620 0.954968 0.569225
v 2.526837 0.940744 0.589333
v 2.544598 0.937801 0.743079
v 2.529317 0.937532 0.758295
v 2.541620 0.951888 0.776445
v 2.562733 0.952202 0.755334
v 2.465372 0.940744 0.589333
v 2.459335 0.954968 0.569225
v 2.429476 0.954968 0.569225
v 2.426193 0.954702 0.599082
v 2.429503 0.953396 0.734587
v 2.449601 0.940435 0.605239
v 2.415361 0.952268 0.746589
v 2.429476 0.951888 0.776445
v 2.459335 0.951888 0.776445
v 2.462892 0.937532 0.758295
v 2.447611 0.937801 0.743079
v 2.429477 0.952713 0.715011
v -0.724080 1.144702 -0.787579
v -0.714334 1.174561 -0.787695
v -0.744696 1.162783 -0.798463
v 0.764290 0.985071 -0.786962
v 0.779598 1.014929 -0.787073
v 0.749730 1.014929 -0.787073
v 0.772279 1.319262 -0.803189
v 0.756972 1.304333 -0.788201
v 0.786840 1.304333 -0.788201
v 2.251866 1.174561 -0.787695
v 2.260117 1.144702 -0.787579
v 2.285871 1.163608 -0.787653
v 0.783592 1.174561 -0.787695
v 0.753724 1.174561 -0.787695
v 0.752977 1.144702 -0.787579
v 0.782845 1.144702 -0.787579
v -0.724207 1.260954 -0.826141
v -0.730556 1.256624 -0.815318
v -0.706528 1.280441 -0.812632
v -0.614563 1.319262 -0.810984
v -0.646712 1.304333 -0.825971
v -0.653750 1.309984 -0.812517
v 2.432914 1.304333 -0.825971
v 2.400766 1.319262 -0.810984
v 2.439952 1.309983 -0.812517
v 2.510409 1.260954 -0.826141
v 2.492730 1.280441 -0.812632
v 2.516759 1.256624 -0.815319
v -0.609043 1.304333 -0.788201
v -0.606768 1.319262 -0.803189
v -0.642844 1.309983 -0.801611
v -0.686120 1.260999 -0.788032
v -0.695392 1.280441 -0.801496
v -0.714067 1.256624 -0.798829
v 2.472323 1.260999 -0.788032
v 2.500269 1.256624 -0.798829
v 2.481594 1.280441 -0.801496
v 2.392971 1.319262 -0.803189
v 2.395246 1.304333 -0.788201
v 2.429047 1.309983 -0.801611
v 2.410591 1.163939 -0.787654
v 2.382003 1.155323 -0.787620
v 2.315706 1.174561 -0.826477
v 2.324155 1.144702 -0.826594
v 2.290049 1.155567 -0.826551
v 2.411983 1.174561 -0.826477
v 2.446479 1.164033 -0.826518
v 2.421196 1.144702 -0.826594
v 2.573217 0.975127 -0.786928
v 2.573217 0.975127 -0.786928
v 2.585951 0.982731 -0.779915
v 2.570085 0.990099 -0.797121
v 2.599441 0.991582 -0.793531
v 2.627038 0.999661 -0.819728
v 2.612628 1.014538 -0.831227
v 2.587767 1.001616 -0.804555
v 2.568939 1.046237 -0.798009
v 2.544593 1.039582 -0.787169
v 2.562672 1.017426 -0.794936
v 2.529954 0.985071 -0.786962
v 2.555701 1.004048 -0.787034
v 2.526706 1.014929 -0.787073
v 2.573217 0.949776 0.771990
v 2.558288 0.949524 0.786919
v 2.565480 0.945131 0.797436
v 2.583685 0.945369 0.779216
v 2.583304 0.962957 0.815332
v 2.605927 0.973493 0.840838
v 2.627038 0.973832 0.819728
v 2.601639 0.963311 0.797235
v -0.826426 1.014538 -0.831227
v -0.840836 0.999661 -0.819728
v -0.813239 0.991582 -0.793531
v -0.801564 1.001616 -0.804555
v -0.799749 0.982731 -0.779915
v -0.787015 0.975127 -0.786928
v -0.787015 0.975127 -0.786928
v -0.783883 0.990099 -0.797121
v -0.743752 0.985071 -0.786962
v -0.740504 1.014929 -0.787073
v -0.769499 1.004048 -0.787034
v -0.782737 1.046237 -0.798009
v -0.776469 1.017426 -0.794936
v -0.758391 1.039582 -0.787169
v -0.772085 0.949524 0.786919
v -0.787015 0.949776 0.771990
v -0.797483 0.945369 0.779216
v -0.779277 0.945131 0.797436
v -0.819725 0.973493 0.840838
v -0.797102 0.962957 0.815332
v -0.815437 0.963311 0.797235
v -0.840836 0.973832 0.819728
v 2.732989 0.991904 0.925805
v 2.712006 0.991841 0.946795
v 2.740342 0.984380 0.972881
v 2.759095 0.984420 0.954127
v 2.756133 0.970826 0.988671
v 2.771273 0.946173 1.000000
v 2.786202 0.946173 0.985071
v 2.774874 0.970826 0.969931
v -0.925804 0.991841 0.946795
v -0.946787 0.991904 0.925805
v -0.972892 0.984420 0.954127
v -0.954140 0.984380 0.972881
v -0.985071 0.946173 1.000000
v -0.969931 0.970826 0.988671
v -0.988671 0.970826 0.969931
v -1.000000 0.946173 0.985071
v 2.711262 1.000000 -0.946173
v 2.732383 0.999935 -0.925068
v 2.757848 0.989404 -0.953387
v 2.739577 0.989443 -0.971659
v 2.775645 0.971659 -0.971159
v 2.786202 0.946173 -0.985071
v 2.771273 0.946173 -1.000000
v 2.757361 0.971659 -0.989443
v -0.925060 1.000000 -0.946173
v -0.953375 0.989443 -0.971659
v -0.971646 0.989404 -0.953387
v -0.946181 0.999935 -0.925067
v -0.971159 0.971659 -0.989443
v -0.985071 0.946173 -1.000000
v -1.000000 0.946173 -0.985071
v -0.989443 0.971659 -0.971159
v 2.774980 0.970949 0.685139
v 2.774980 0.970949 0.718984
v 2.786202 0.946173 0.724959
v 2.786202 0.946173 0.695100
v 2.758867 0.985137 0.673681
v 2.732831 0.993058 0.653882
v 2.732840 0.992947 0.690394
v 2.758878 0.985033 0.707567
v -1.000000 0.946173 0.724959
v -0.988778 0.970949 0.718985
v -0.988778 0.970949 0.685139
v -1.000000 0.946173 0.695100
v -0.972676 0.985033 0.707567
v -0.946638 0.992947 0.690394
v -0.946629 0.993058 0.653882
v -0.972664 0.985137 0.673681
v 2.601617 0.967106 0.562318
v 2.601617 0.966572 0.595561
v 2.627042 0.977043 0.615329
v 2.627042 0.977630 0.578715
v 2.583673 0.949345 0.549595
v 2.573217 0.953777 0.543809
v 2.573217 0.953116 0.573666
v 2.583711 0.948651 0.582793
v -0.815414 0.966572 0.595562
v -0.815414 0.967106 0.562317
v -0.840840 0.977630 0.578715
v -0.840839 0.977043 0.615327
v -0.797508 0.948651 0.582793
v -0.787015 0.953116 0.573666
v -0.787015 0.953777 0.543809
v -0.797471 0.949345 0.549595
v 2.504075 0.970826 0.988671
v 2.468585 0.970826 0.988671
v 2.480992 0.946173 1.000000
v 2.510851 0.946173 1.000000
v 2.455216 0.984380 0.972881
v 2.490706 0.984380 0.972881
v 2.470343 0.991841 0.946795
v 2.431408 0.991841 0.946795
v 2.430787 1.000000 -0.946173
v 2.469910 1.000000 -0.946173
v 2.489327 0.989443 -0.971659
v 2.454526 0.989443 -0.971659
v 2.480992 0.946173 -1.000000
v 2.469583 0.971659 -0.989443
v 2.504384 0.971659 -0.989443
v 2.510851 0.946173 -1.000000
v 2.356997 0.962957 0.815332
v 2.322215 0.962957 0.815332
v 2.341604 0.973493 0.840838
v 2.380730 0.973493 0.840838
v 2.307123 0.945131 0.797436
v 2.341905 0.945131 0.797436
v 2.330524 0.949524 0.786919
v 2.300665 0.949524 0.786919
v 2.613485 0.971659 -0.989443
v 2.649144 0.971659 -0.989443
v 2.655991 0.946173 -1.000000
v 2.626132 0.946173 -1.000000
v 2.597064 0.989443 -0.971659
v 2.571042 1.000000 -0.946173
v 2.611682 1.000000 -0.946173
v 2.632724 0.989443 -0.971659
v 2.655991 0.946173 1.000000
v 2.648831 0.970826 0.988671
v 2.612373 0.970826 0.988671
v 2.626132 0.946173 1.000000
v 2.634251 0.984380 0.972881
v 2.612149 0.991841 0.946795
v 2.571724 0.991841 0.946795
v 2.597793 0.984380 0.972881
v 2.488410 0.962957 0.815332
v 2.452772 0.962957 0.815332
v 2.473783 0.973493 0.840838
v 2.514423 0.973493 0.840838
v 2.471952 0.945131 0.797436
v 2.459335 0.949524 0.786919
v 2.429476 0.949524 0.786919
v 2.436314 0.945131 0.797436
v 2.626132 0.859468 -1.000000
v 2.655991 0.859468 -1.000000
v 2.655991 0.829609 -1.000000
v 2.626132 0.829609 -1.000000
v -1.000000 0.859468 -0.985071
v -0.985071 0.859468 -1.000000
v -0.985071 0.829609 -1.000000
v -1.000000 0.829609 -0.985071
v 2.047922 -1.000000 -0.985071
v 2.047922 -0.985071 -1.000000
v 2.077780 -0.985071 -1.000000
v 2.077780 -1.000000 -0.985071
v 2.047922 0.859468 -1.000000
v 2.077780 0.859468 -1.000000
v 2.077780 0.829609 -1.000000
v 2.047922 0.829609 -1.000000
v 1.947677 0.975756 0.841915
v 1.982664 0.975756 0.841915
v 1.964376 0.973493 0.812229
v 1.929276 0.973493 0.812229
v 1.916318 0.951954 0.772000
v 1.916318 0.936803 0.786868
v 1.946177 0.936803 0.786868
v 1.946177 0.951954 0.772000
v 2.086605 0.645227 0.986730
v 2.069960 0.661545 0.986872
v 2.047922 0.653315 1.000000
v 2.047922 0.623456 1.000000
v 2.077780 0.623456 1.000000
v 2.047922 0.623456 -1.000000
v 2.047922 0.653315 -1.000000
v 2.077780 0.653315 -1.000000
v 2.077780 0.623456 -1.000000
v 2.077780 -1.000000 0.695100
v 2.077780 -1.000000 0.724959
v 2.047922 -1.000000 0.724959
v 2.047922 -1.000000 0.695100
v 2.047922 -1.000000 0.985071
v 2.077780 -1.000000 0.985071
v 2.077780 -0.985071 1.000000
v 2.047922 -0.985071 1.000000
v 1.956052 1.014929 -0.827100
v 1.982826 1.000000 -0.842087
v 1.947727 1.000000 -0.842087
v 1.931247 0.990056 -0.786980
v 1.916318 0.974905 -0.772000
v 1.946176 0.974905 -0.772000
v 1.916318 0.954902 0.573670
v 1.946176 0.954902 0.573670
v 1.946176 0.955346 0.543814
v 1.916318 0.955346 0.543814
v 2.086605 0.837697 0.986730
v 2.077780 0.859468 1.000000
v 2.047922 0.859468 1.000000
v 2.047922 0.829609 1.000000
v 2.069960 0.821379 0.986872
v 2.047469 0.991841 0.946795
v 2.012482 0.991841 0.946795
v 2.029605 0.984380 0.972881
v 2.062583 0.984380 0.972881
v 2.047922 0.946173 1.000000
v 2.077780 0.946173 1.000000
v 2.072340 0.970826 0.988671
v 2.039362 0.970826 0.988671
v 1.946177 0.949524 0.786919
v 1.916318 0.949524 0.786919
v 1.921470 0.945131 0.797436
v 1.954044 0.945131 0.797436
v 1.946956 0.973493 0.840838
v 1.982056 0.973493 0.840838
v 1.965057 0.962957 0.815332
v 1.932484 0.962957 0.815332
v 2.012042 1.000000 -0.946173
v 2.047141 1.000000 -0.946173
v 2.061631 0.989443 -0.971659
v 2.029047 0.989443 -0.971659
v 2.047922 0.946173 -1.000000
v 2.040036 0.971659 -0.989443
v 2.072620 0.971659 -0.989443
v 2.077780 0.946173 -1.000000
v 2.294316 0.859468 -1.000000
v 2.294316 0.829609 -1.000000
v 2.264457 0.829609 -1.000000
v 2.264457 0.859468 -1.000000
v 2.123377 0.973493 0.812229
v 2.145194 0.975756 0.841915
v 2.182054 0.975756 0.841915
v 2.160388 0.973493 0.812229
v 2.255632 0.837697 0.986730
v 2.272277 0.821379 0.986872
v 2.283636 0.825024 0.985688
v 2.299179 0.840477 0.985634
v 2.294316 0.859468 1.000000
v 2.264457 0.859468 1.000000
v 2.264457 -1.000000 0.695100
v 2.294316 -1.000000 0.695100
v 2.294316 -1.000000 0.724959
v 2.264457 -1.000000 0.724959
v 2.264457 -1.000000 -0.985071
v 2.264457 -0.985071 -1.000000
v 2.294316 -0.985071 -1.000000
v 2.294316 -1.000000 -0.985071
v 2.108492 0.949524 0.786919
v 2.114331 0.945131 0.797436
v 2.147940 0.945131 0.797436
v 2.138350 0.949524 0.786919
v 2.255632 0.645227 0.986730
v 2.264457 0.623456 1.000000
v 2.294316 0.623456 1.000000
v 2.299179 0.642447 0.985634
v 2.283636 0.657900 0.985688
v 2.272277 0.661545 0.986872
v 2.294316 0.623456 -1.000000
v 2.264457 0.623456 -1.000000
v 2.264457 0.653315 -1.000000
v 2.294316 0.653315 -1.000000
v 2.294316 -1.000000 0.985071
v 2.294316 -0.985071 1.000000
v 2.264457 -0.985071 1.000000
v 2.264457 -1.000000 0.985071
v 2.182254 1.000000 -0.842087
v 2.145246 1.000000 -0.842087
v 2.152817 1.014929 -0.827100
v 2.138350 0.974905 -0.772000
v 2.123421 0.990056 -0.786980
v 2.108491 0.974905 -0.772000
v 2.138350 0.955346 0.543814
v 2.108491 0.955346 0.543814
v 2.108491 0.954902 0.573670
v 2.138350 0.954902 0.573670
v 2.108492 0.936803 0.786868
v 2.138350 0.936803 0.786868
v 2.138350 0.951954 0.772000
v 2.108492 0.951954 0.772000
v 2.242448 0.984380 0.972881
v 2.276607 0.984380 0.972881
v 2.258855 0.991841 0.946795
v 2.221996 0.991841 0.946795
v 2.288170 0.970826 0.988671
v 2.254011 0.970826 0.988671
v 2.264457 0.946173 1.000000
v 2.294316 0.946173 1.000000
v 2.160993 0.962957 0.815332
v 2.127383 0.962957 0.815332
v 2.144332 0.973493 0.840838
v 2.181343 0.973493 0.840838
v 2.258474 1.000000 -0.946173
v 2.275445 0.989443 -0.971659
v 2.241821 0.989443 -0.971659
v 2.221466 1.000000 -0.946173
v 2.264457 0.946173 -1.000000
v 2.254844 0.971659 -0.989443
v 2.288468 0.971659 -0.989443
v 2.294316 0.946173 -1.000000
v 2.233211 0.815078 0.963070
v 2.248448 0.799881 0.963043
v 2.258565 0.808323 0.961548
v 2.242073 0.824788 0.961689
v 2.109026 0.815078 0.963070
v 2.100164 0.824788 0.961689
v 2.083673 0.808323 0.961548
v 2.093790 0.799882 0.963043
v 2.233211 0.667846 0.963070
v 2.242073 0.658136 0.961689
v 2.258565 0.674601 0.961548
v 2.248448 0.683043 0.963043
v 2.109026 0.667846 0.963070
v 2.093790 0.683043 0.963043
v 2.083673 0.674601 0.961548
v 2.100164 0.658136 0.961689
v 2.469067 0.679072 0.932741
v 2.453924 0.663956 0.932761
v 2.460317 0.657500 0.932391
v 2.475828 0.672984 0.932336
v 2.469067 0.803852 0.932741
v 2.475828 0.809940 0.932336
v 2.460317 0.825424 0.932391
v 2.453924 0.818968 0.932761
v 2.321384 0.818968 0.932761
v 2.314991 0.825424 0.932391
v 2.299480 0.809940 0.932336
v 2.306241 0.803852 0.932741
v 2.321384 0.663956 0.932761
v 2.306241 0.679072 0.932741
v 2.299480 0.672984 0.932336
v 2.314991 0.657500 0.932391
v 2.457198 0.690372 1.002299
v 2.439758 0.692572 1.017016
v 2.442062 0.675249 1.002280
v 2.457198 0.792552 1.002299
v 2.442062 0.807675 1.002280
v 2.439758 0.790352 1.017016
v 2.333246 0.807675 1.002280
v 2.318110 0.792552 1.002299
v 2.335550 0.790352 1.017016
v 2.333246 0.675249 1.002280
v 2.335550 0.692572 1.017016
v 2.318110 0.690372 1.002299
v 2.223832 0.806148 1.008662
v 2.221120 0.788350 1.023313
v 2.239057 0.790941 1.008690
v 2.118405 0.806148 1.008662
v 2.103180 0.790941 1.008690
v 2.121118 0.788350 1.023313
v 2.223832 0.676776 1.008662
v 2.239057 0.691983 1.008690
v 2.221120 0.694575 1.023313
v 2.118405 0.676776 1.008662
v 2.121118 0.694575 1.023313
v 2.103180 0.691983 1.008690
vn 0.9239 -0.0000 -0.3827
vn 0.3827 -0.0000 -0.9239
vn 0.3416 -0.8756 -0.3416
vn 0.3416 -0.3416 -0.8756
vn 0.8756 -0.3416 -0.3416
vn -0.0761 -0.0761 0.9942
vn -0.0880 -0.2253 0.9703
vn -0.2730 -0.6613 0.6987
vn -0.6572 -0.2718 0.7030
vn -0.2246 -0.0874 0.9705
vn 0.3416 -0.3416 0.8756
vn 0.3416 -0.8756 0.3416
vn 0.8756 -0.3416 0.3416
vn -0.3827 -0.0000 0.9239
vn -0.9239 -0.0000 0.3827
vn -0.3416 -0.3416 -0.8756
vn -0.3416 -0.8756 -0.3416
vn -0.8756 -0.3416 -0.3416
vn 1.0000 -0.0000 -0.0000
vn -0.8756 -0.3416 0.3416
vn -0.3416 -0.8756 0.3416
vn -0.3416 -0.3416 0.8756
vn 0.9239 -0.0000 0.3827
vn 0.3827 -0.0000 0.9239
vn -1.0000 -0.0000 -0.0000
vn -0.0000 -0.0000 1.0000
vn -0.0000 -0.0000 -1.0000
vn -0.0975 0.9950 -0.0201
vn -0.9626 -0.0529 -0.2656
vn -0.2408 -0.0452 -0.9695
vn -0.0316 0.9953 -0.0917
vn 0.0316 0.9953 -0.0917
vn 0.2408 -0.0452 -0.9695
vn 0.9626 -0.0529 -0.2656
vn 0.0975 0.9950 -0.0201
vn 0.1215 0.9873 -0.1019
vn 0.4279 0.6642 -0.6130
vn 0.8921 0.4464 -0.0696
vn -0.1398 0.2466 -0.9590
vn 0.0923 0.9956 0.0160
vn -0.0923 0.9956 0.0160
vn 0.1397 0.2466 -0.9590
vn -0.8921 0.4464 -0.0696
vn -0.4279 0.6642 -0.6130
vn -0.1215 0.9873 -0.1019
vn -0.7973 0.5579 -0.2303
vn -0.2788 0.9524 -0.1234
vn -0.3101 0.5689 -0.7617
vn 0.2502 0.8472 -0.4687
vn -0.3412 0.8716 0.3519
vn 0.4764 0.8460 -0.2394
vn 0.0113 0.8914 0.4530
vn 0.2010 0.9589 0.2003
vn -0.3021 0.9533 0.0036
vn 0.3021 0.9533 0.0036
vn -0.1780 0.9653 0.1913
vn -0.0004 0.8938 0.4485
vn -0.9239 -0.3827 -0.0000
vn -0.3827 -0.9239 -0.0000
vn -0.9239 -0.0000 -0.3827
vn -0.3827 -0.0000 -0.9239
vn 0.9239 -0.3827 -0.0000
vn 0.3827 -0.9239 -0.0000
vn -0.1107 0.9938 0.0124
vn -0.0745 0.9971 0.0125
vn -0.9995 -0.0279 -0.0123
vn -0.9990 -0.0452 -0.0046
vn 0.0745 0.9971 0.0125
vn 0.1107 0.9938 0.0124
vn 0.9990 -0.0452 -0.0046
vn 0.9995 -0.0279 -0.0123
vn -0.7667 0.5468 0.3364
vn -0.2648 0.5705 0.7774
vn -0.2627 0.8708 0.4156
vn -0.3827 0.9238 0.0137
vn -0.3054 0.9521 0.0155
vn 0.4649 0.8852 0.0159
vn 0.3827 0.9238 0.0137
vn -0.0000 -0.3827 -0.9239
vn -0.0000 -0.9239 -0.3827
vn -0.6572 0.2718 0.7030
vn -0.2730 0.6613 0.6987
vn -0.0880 0.2253 0.9703
vn -0.0761 0.0761 0.9942
vn -0.2246 0.0874 0.9705
vn -0.0000 -0.3827 0.9239
vn -0.0000 -0.9239 0.3827
vn -0.0000 0.9935 -0.1139
vn -0.0000 -0.0380 -0.9993
vn -0.0000 0.9243 -0.3818
vn -0.0000 0.3854 -0.9228
vn -0.0000 0.0038 1.0000
vn -0.0000 0.0037 1.0000
vn -0.0008 1.0000 -0.0035
vn 0.3272 0.4743 -0.8173
vn 0.8215 0.4703 -0.3225
vn 0.8653 -0.2841 -0.4130
vn 0.3515 -0.2843 -0.8920
vn -0.0000 0.7031 0.7111
vn -0.0000 0.9199 0.3922
vn -0.0000 0.9243 -0.3817
vn -0.0000 0.3854 0.9228
vn -0.0000 0.9243 0.3818
vn 0.8134 0.4704 0.3423
vn 0.3095 0.4404 0.8428
vn 0.3365 0.6811 0.6503
vn 0.8876 -0.1666 0.4294
vn -0.0000 -1.0000 -0.0000
vn -0.4904 0.8714 0.0130
vn -0.5197 0.8542 0.0151
vn 0.2764 0.9609 0.0156
vn 0.9706 -0.2407 -0.0036
vn 0.9187 -0.3950 -0.0059
vn -0.5859 0.7893 -0.1834
vn 0.8843 -0.4222 0.1995
vn 0.2080 -0.4302 0.8784
vn -0.1930 0.7931 -0.5777
vn -0.0000 0.9999 0.0149
vn 0.6125 0.7891 -0.0463
vn 0.6430 0.5449 -0.5382
vn -0.0000 0.8754 -0.4835
vn -0.0000 -0.4061 0.9138
vn -0.0000 -0.2540 0.9672
vn -0.0000 0.9308 0.3656
vn -0.0000 0.8911 -0.4538
vn 0.0021 1.0000 -0.0034
vn 0.0162 0.9463 0.3230
vn 0.0308 0.8159 0.5774
vn -0.0000 0.0065 -1.0000
vn -0.2456 -0.0000 -0.9694
vn -0.0000 0.9264 -0.3765
vn -0.0000 -0.3939 0.9192
vn -0.3095 0.4404 0.8428
vn -0.8134 0.4704 0.3423
vn -0.8876 -0.1666 0.4294
vn -0.3365 0.6811 0.6503
vn -0.3272 0.4743 -0.8173
vn -0.3515 -0.2843 -0.8920
vn -0.8653 -0.2841 -0.4130
vn -0.8215 0.4703 -0.3225
vn 0.3101 0.5689 -0.7617
vn 0.2788 0.9524 -0.1234
vn 0.7973 0.5579 -0.2303
vn -0.9318 0.0052 0.3629
vn -0.2752 0.8776 0.3926
vn -0.9887 -0.0205 0.1488
vn 0.4127 0.0159 -0.9107
vn 0.8936 0.4075 0.1883
vn 0.0073 0.9999 0.0092
vn -0.3357 0.0020 -0.9420
vn -0.8159 0.0011 -0.5781
vn 0.2648 0.5705 0.7774
vn 0.7667 0.5468 0.3364
vn 0.2627 0.8708 0.4156
vn -0.3416 0.3675 -0.8650
vn -0.8756 0.3516 -0.3313
vn -0.3416 0.8854 -0.3153
vn 0.3416 0.3675 -0.8650
vn 0.3416 0.8854 -0.3153
vn 0.8756 0.3516 -0.3313
vn 0.8756 0.3313 0.3516
vn 0.3416 0.8650 0.3675
vn 0.3416 0.3153 0.8854
vn -0.3416 0.3153 0.8854
vn -0.3416 0.8650 0.3675
vn -0.8756 0.3313 0.3516
vn -0.6658 0.6893 0.2857
vn -0.8869 -0.2282 0.4017
vn -0.4083 -0.2237 0.8850
vn -0.2545 0.7094 0.6572
vn -0.7141 0.6461 -0.2695
vn -0.2933 0.6331 -0.7164
vn -0.4001 -0.2319 -0.8866
vn -0.8847 -0.2268 -0.4073
vn 0.3093 0.7467 0.5889
vn 0.6033 -0.3359 0.7233
vn 0.9495 -0.2305 0.2131
vn 0.2179 0.9737 0.0660
vn 0.7959 -0.5708 0.2018
vn 0.6769 0.6817 0.2776
vn 0.8656 -0.1733 -0.4698
vn 0.8436 -0.1783 -0.5064
vn 0.3862 -0.2995 -0.8724
vn 0.2970 0.6933 -0.6567
vn 0.6676 0.6977 -0.2598
vn 0.9636 -0.1682 -0.2080
vn -0.1912 0.0662 0.9793
vn -0.5427 0.1803 0.8204
vn -0.0000 0.0036 1.0000
vn -0.0000 0.0039 1.0000
vn -0.5211 0.4318 -0.7362
vn -0.8708 0.4577 0.1794
vn -0.5973 0.8001 0.0552
vn -0.1157 0.9569 -0.2665
vn -0.1593 0.5143 -0.8427
vn -0.3991 0.9145 -0.0665
vn 0.1593 0.5143 -0.8427
vn 0.1157 0.9569 -0.2665
vn 0.3991 0.9145 -0.0665
vn 0.5211 0.4318 -0.7362
vn 0.5973 0.8001 0.0552
vn 0.8708 0.4577 0.1794
vn -0.0693 0.4074 0.9106
vn -0.0685 0.9172 0.3924
vn -0.2842 0.7621 0.5817
vn -0.2107 0.2189 0.9527
vn -0.4276 0.6021 0.6743
vn -0.5328 0.3260 0.7809
vn 0.2107 0.2189 0.9527
vn 0.5328 0.3260 0.7809
vn 0.4276 0.6021 0.6743
vn 0.0685 0.9172 0.3924
vn 0.0693 0.4074 0.9106
vn 0.2842 0.7621 0.5817
vn -0.0000 0.0039 -1.0000
vn -0.1486 0.5078 0.8486
vn -0.6145 0.7446 0.2606
vn -0.4145 0.8726 0.2585
vn 0.1424 0.3390 0.9300
vn -0.1918 0.9226 0.3347
vn -0.8945 0.1599 0.4176
vn 0.4118 0.0475 0.9100
vn 0.3513 0.5082 0.7863
vn 0.5508 0.1471 0.8216
vn 0.2159 0.0512 0.9751
vn 0.4297 0.0772 0.8997
vn 0.0312 0.0225 0.9993
vn 0.2555 0.0777 0.9637
vn 0.0434 0.0174 0.9989
vn -0.3725 0.9134 -0.1640
vn -0.1810 0.9139 -0.3633
vn -0.0626 0.9597 -0.2740
vn -0.2842 0.9576 -0.0480
vn -0.1617 0.9012 -0.4021
vn -0.4317 -0.1227 -0.8936
vn -0.8926 -0.1291 -0.4320
vn -0.4133 0.8987 -0.1469
vn -0.4118 0.0475 0.9100
vn 0.8945 0.1599 0.4176
vn 0.1918 0.9226 0.3347
vn -0.3513 0.5082 0.7863
vn 0.4145 0.8726 0.2585
vn 0.6145 0.7446 0.2606
vn 0.1486 0.5078 0.8486
vn -0.1424 0.3390 0.9300
vn -0.0312 0.0224 0.9993
vn -0.0434 0.0174 0.9989
vn -0.2555 0.0777 0.9637
vn -0.5508 0.1471 0.8216
vn -0.4297 0.0772 0.8997
vn -0.2159 0.0512 0.9751
vn 0.1810 0.9139 -0.3633
vn 0.3725 0.9134 -0.1640
vn 0.2842 0.9576 -0.0480
vn 0.0626 0.9597 -0.2740
vn 0.4317 -0.1227 -0.8936
vn 0.1617 0.9012 -0.4021
vn 0.4133 0.8987 -0.1469
vn 0.8926 -0.1291 -0.4320
vn 0.1020 0.9946 0.0180
vn 0.0127 0.9947 0.1023
vn 0.1334 0.9007 0.4135
vn 0.4151 0.8997 0.1351
vn 0.2507 0.6759 0.6930
vn 0.3917 0.2770 0.8774
vn 0.8776 0.2765 0.3917
vn 0.6940 0.6747 0.2513
vn -0.0127 0.9947 0.1023
vn -0.1020 0.9946 0.0180
vn -0.4151 0.8997 0.1351
vn -0.1334 0.9007 0.4135
vn -0.3917 0.2770 0.8774
vn -0.2507 0.6759 0.6930
vn -0.6940 0.6748 0.2513
vn -0.8776 0.2765 0.3917
vn 0.0482 0.9800 -0.1930
vn 0.1700 0.9845 -0.0427
vn 0.4586 0.8743 -0.1592
vn 0.1611 0.8663 -0.4728
vn 0.7168 0.6436 -0.2683
vn 0.8825 0.2584 -0.3930
vn 0.3929 0.2552 -0.8835
vn 0.2693 0.6356 -0.7235
vn -0.0482 0.9800 -0.1930
vn -0.1611 0.8663 -0.4728
vn -0.4586 0.8743 -0.1592
vn -0.1700 0.9845 -0.0427
vn -0.2693 0.6356 -0.7235
vn -0.3929 0.2552 -0.8835
vn -0.8825 0.2584 -0.3930
vn -0.7168 0.6436 -0.2683
vn 0.8098 0.5867 0.0006
vn 0.8017 0.5977 0.0006
vn 0.9773 0.2118 0.0001
vn 0.9781 0.2079 0.0001
vn 0.5020 0.8649 0.0020
vn 0.1070 0.9942 0.0063
vn 0.0726 0.9973 0.0061
vn 0.4817 0.8763 0.0021
vn -0.9773 0.2118 0.0001
vn -0.8017 0.5977 0.0006
vn -0.8098 0.5867 0.0006
vn -0.9781 0.2079 0.0001
vn -0.4817 0.8763 0.0021
vn -0.0726 0.9973 0.0061
vn -0.1070 0.9942 0.0063
vn -0.5020 0.8649 0.0020
vn -0.5291 0.8484 0.0154
vn -0.5618 0.8271 0.0137
vn -0.9785 -0.2061 -0.0034
vn -0.9811 -0.1933 -0.0021
vn -0.2687 0.9630 0.0201
vn -0.7055 0.7086 0.0147
vn -0.5578 0.8298 0.0166
vn -0.1995 0.9797 0.0177
vn 0.5618 0.8271 0.0137
vn 0.5291 0.8484 0.0154
vn 0.9811 -0.1933 -0.0021
vn 0.9785 -0.2061 -0.0034
vn 0.1995 0.9797 0.0177
vn 0.5578 0.8298 0.0166
vn 0.7055 0.7086 0.0147
vn 0.2687 0.9630 0.0201
vn -0.0000 0.6021 0.7984
vn -0.0000 0.2137 0.9769
vn -0.0000 0.8805 0.4741
vn -0.0000 0.9980 0.0632
vn -0.0000 0.9808 -0.1951
vn -0.0000 0.8315 -0.5556
vn -0.0000 0.1951 -0.9808
vn -0.0000 0.5556 -0.8315
vn -0.0000 0.8323 -0.5544
vn -0.0000 -0.1946 -0.9809
vn -0.0000 0.9813 -0.1927
vn -0.0000 0.8334 -0.5527
vn -0.0000 0.9192 0.3939
vn 0.2256 0.5538 0.8015
vn 0.5462 0.2243 0.8071
vn 0.1823 0.0766 0.9803
vn 0.0629 0.0629 0.9960
vn 0.0776 0.1832 0.9800
vn -0.0004 0.4234 0.9060
vn -0.0009 0.9578 0.2873
vn 0.2256 -0.5538 0.8015
vn 0.0776 -0.1832 0.9800
vn 0.0629 -0.0629 0.9960
vn 0.1823 -0.0766 0.9803
vn 0.5462 -0.2243 0.8071
vn -0.1353 -0.5955 0.7919
vn -0.2807 -0.2945 0.9135
vn 0.4401 -0.3636 0.8210
vn 0.1850 -0.6896 0.7002
vn 0.0109 -0.2512 0.9679
vn 0.0117 -0.2277 0.9737
vn -0.1353 0.5955 0.7919
vn 0.0117 0.2277 0.9737
vn 0.0109 0.2512 0.9679
vn 0.1850 0.6896 0.7002
vn 0.4401 0.3636 0.8210
vn -0.2807 0.2945 0.9135
vn -0.0000 0.3816 0.9243
vn 0.2170 0.5176 0.8276
vn 0.5186 0.2140 0.8278
vn -0.4863 -0.1601 0.8590
vn -0.1538 -0.4978 0.8536
vn -0.2170 0.5176 0.8276
vn 0.1538 -0.4978 0.8536
vn 0.4863 -0.1601 0.8590
vn -0.5186 0.2140 0.8278
vn 0.2170 -0.5176 0.8276
vn -0.1538 0.4978 0.8536
vn -0.4863 0.1601 0.8590
vn 0.5186 -0.2140 0.8278
vn -0.2170 -0.5176 0.8276
vn -0.5186 -0.2140 0.8278
vn 0.4863 0.1601 0.8590
vn 0.1538 0.4978 0.8536
vn 0.4956 -0.2098 0.8428
vn 0.2120 -0.4957 0.8422
vn -0.2161 0.6035 0.7675
vn -0.5976 0.2199 0.7711
vn 0.4956 0.2098 0.8428
vn -0.5976 -0.2199 0.7711
vn -0.2161 -0.6035 0.7675
vn 0.2120 0.4957 0.8422
vn -0.2120 0.4957 0.8422
vn 0.2161 -0.6035 0.7675
vn 0.5976 -0.2199 0.7711
vn -0.4956 0.2098 0.8428
vn -0.2120 -0.4957 0.8422
vn -0.4956 -0.2097 0.8428
vn 0.5976 0.2199 0.7711
vn 0.2161 0.6035 0.7675
vn 0.8190 -0.3132 0.4807
vn 0.2982 -0.3000 0.9061
vn 0.3120 -0.8214 0.4774
vn 0.8190 0.3132 0.4807
vn 0.3120 0.8214 0.4774
vn 0.2982 0.3000 0.9061
vn -0.3120 0.8214 0.4774
vn -0.8190 0.3132 0.4807
vn -0.2982 0.3000 0.9061
vn -0.3120 -0.8214 0.4774
vn -0.2982 -0.3000 0.9061
vn -0.8190 -0.3132 0.4807
vn 0.3048 0.8088 0.5030
vn 0.2900 0.2922 0.9113
vn 0.8058 0.3063 0.5069
vn -0.3048 0.8088 0.5030
vn -0.8058 0.3063 0.5069
vn -0.2900 0.2922 0.9113
vn 0.3048 -0.8088 0.5030
vn 0.8058 -0.3063 0.5069
vn 0.2900 -0.2922 0.9113
vn -0.3048 -0.8088 0.5030
vn -0.2900 -0.2922 0.9113
vn -0.8058 -0.3063 0.5069
vt 0.635437 0.702004
vt 0.635439 0.727618
vt 0.628514 0.740726
vt 0.628522 0.711299
vt 0.637456 0.521605
vt 0.644080 0.521605
vt 0.644051 0.521605
vt 0.644027 0.521605
vt 0.641939 0.521605
vt 0.637503 0.521605
vt 0.641557 0.701619
vt 0.641666 0.716604
vt 0.640965 0.717897
vt 0.641067 0.700661
vt 0.376866 0.715620
vt 0.577932 0.715620
vt 0.577932 0.748134
vt 0.376866 0.748134
vt 0.680415 0.730105
vt 0.863095 0.730105
vt 0.861208 0.726528
vt 0.681582 0.726528
vt 0.864491 0.697340
vt 0.864490 0.522534
vt 0.862601 0.526110
vt 0.862602 0.694799
vt 0.864490 0.727467
vt 0.864490 0.701916
vt 0.862601 0.699377
vt 0.862602 0.723889
vt 0.636904 0.730104
vt 0.642946 0.730105
vt 0.644689 0.726528
vt 0.638793 0.726529
vt 0.651703 0.519739
vt 0.645553 0.519739
vt 0.639207 0.506728
vt 0.645885 0.506728
vt 0.638343 0.525259
vt 0.636137 0.521084
vt 0.637133 0.522970
vt 0.637165 0.523029
vt 0.638312 0.525201
vt 0.639063 0.526623
vt 0.641920 0.526623
vt 0.646583 0.526623
vt 0.646583 0.526623
vt 0.657059 0.696717
vt 0.667777 0.696717
vt 0.667777 0.721511
vt 0.657060 0.721511
vt 0.376866 0.467521
vt 0.577932 0.467521
vt 0.577932 0.479847
vt 0.376866 0.479847
vt 0.860937 0.696717
vt 0.860937 0.721510
vt 0.860937 0.721510
vt 0.860937 0.696717
vt 0.864564 0.697447
vt 0.864572 0.522378
vt 0.871446 0.509367
vt 0.871476 0.706735
vt 0.642869 0.519739
vt 0.636821 0.519739
vt 0.629948 0.506728
vt 0.636523 0.506728
vt 0.680367 0.730240
vt 0.863176 0.730239
vt 0.870101 0.743349
vt 0.676088 0.743350
vt 0.860937 0.526623
vt 0.860937 0.692984
vt 0.860937 0.692984
vt 0.635428 0.522378
vt 0.635436 0.697447
vt 0.628524 0.706735
vt 0.628554 0.509367
vt 0.857909 0.524841
vt 0.858676 0.523389
vt 0.861702 0.523379
vt 0.860924 0.524850
vt 0.862867 0.522970
vt 0.863863 0.521084
vt 0.861657 0.525259
vt 0.861675 0.525225
vt 0.861688 0.525200
vt 0.862835 0.523029
vt 0.863179 0.519739
vt 0.680364 0.519739
vt 0.676117 0.506728
vt 0.870052 0.506728
vt 0.636824 0.730239
vt 0.642887 0.730240
vt 0.636493 0.743349
vt 0.629899 0.743349
vt 0.657060 0.526623
vt 0.758505 0.526623
vt 0.858080 0.526623
vt 0.681452 0.526623
vt 0.668763 0.526623
vt 0.657059 0.526623
vt 0.581664 0.038112
vt 0.603701 0.038112
vt 0.603701 0.248134
vt 0.581664 0.248134
vt 0.646583 0.696161
vt 0.641150 0.696161
vt 0.641443 0.696717
vt 0.646583 0.696717
vt 0.376866 0.501866
vt 0.577932 0.501866
vt 0.577932 0.711887
vt 0.376866 0.711887
vt 0.607433 0.481819
vt 0.618272 0.481819
vt 0.618272 0.489431
vt 0.607433 0.489431
vt 0.581664 0.491402
vt 0.603701 0.491402
vt 0.603701 0.499014
vt 0.581664 0.499014
vt 0.581664 0.760569
vt 0.603701 0.760569
vt 0.603701 0.768181
vt 0.581664 0.768181
vt 0.607433 0.001866
vt 0.618272 0.001866
vt 0.618272 0.034380
vt 0.607433 0.034380
vt 0.376866 0.760569
vt 0.577932 0.760569
vt 0.577932 0.768181
vt 0.376866 0.768181
vt 0.646190 0.521605
vt 0.652764 0.521605
vt 0.652742 0.521605
vt 0.646212 0.521605
vt 0.855584 0.524634
vt 0.758505 0.524634
vt 0.656561 0.524634
vt 0.656097 0.523595
vt 0.856133 0.523595
vt 0.859859 0.526623
vt 0.759533 0.526623
vt 0.759547 0.526623
vt 0.855428 0.526623
vt 0.859849 0.526623
vt 0.655042 0.526623
vt 0.648603 0.526623
vt 0.648625 0.526623
vt 0.648656 0.526623
vt 0.654989 0.526623
vt 0.655012 0.526623
vt 0.639755 0.698800
vt 0.639755 0.719427
vt 0.640049 0.718872
vt 0.640049 0.699356
vt 0.652500 0.699713
vt 0.649464 0.699713
vt 0.648771 0.698401
vt 0.653193 0.698400
vt 0.581664 0.250986
vt 0.603701 0.250986
vt 0.603701 0.451252
vt 0.581664 0.451252
vt 0.376866 0.750986
vt 0.577932 0.750986
vt 0.577932 0.758598
vt 0.376866 0.758598
vt 0.646157 0.521605
vt 0.652797 0.521605
vt 0.652777 0.521605
vt 0.646177 0.521605
vt 0.581664 0.481819
vt 0.603701 0.481819
vt 0.603701 0.489431
vt 0.581664 0.489431
vt 0.356819 0.715620
vt 0.364431 0.715620
vt 0.364431 0.748134
vt 0.356819 0.748134
vt 0.654290 0.730239
vt 0.664892 0.730240
vt 0.659820 0.743349
vt 0.648427 0.743350
vt 0.864561 0.727618
vt 0.864563 0.702004
vt 0.871478 0.711299
vt 0.871486 0.740726
vt 0.639063 0.721511
vt 0.639063 0.696717
vt 0.639063 0.696717
vt 0.639063 0.721510
vt 0.641150 0.722066
vt 0.646583 0.722066
vt 0.646583 0.721511
vt 0.641443 0.721511
vt 0.646529 0.526623
vt 0.641818 0.526623
vt 0.640107 0.526623
vt 0.640151 0.526623
vt 0.644583 0.526623
vt 0.646476 0.526623
vt 0.646500 0.526623
vt 0.653987 0.696161
vt 0.648554 0.696161
vt 0.648554 0.696717
vt 0.653694 0.696717
vt 0.646583 0.723377
vt 0.640049 0.723377
vt 0.640049 0.723377
vt 0.646583 0.723377
vt 0.655088 0.723377
vt 0.648554 0.723377
vt 0.648555 0.723377
vt 0.655088 0.723377
vt 0.125986 0.715620
vt 0.326252 0.715620
vt 0.326252 0.748134
vt 0.125986 0.748134
vt 0.125986 0.501866
vt 0.326252 0.501866
vt 0.326252 0.711888
vt 0.125986 0.711888
vt 0.682438 0.528489
vt 0.859951 0.528489
vt 0.859951 0.692984
vt 0.682438 0.692984
vt 0.642685 0.718430
vt 0.645625 0.718430
vt 0.646348 0.719798
vt 0.641962 0.719798
vt 0.635509 0.522534
vt 0.635510 0.697341
vt 0.637398 0.694800
vt 0.637397 0.526110
vt 0.648656 0.714401
vt 0.648656 0.703826
vt 0.648656 0.703826
vt 0.648656 0.714401
vt 0.639063 0.692984
vt 0.639063 0.692984
vt 0.342521 0.501866
vt 0.354847 0.501866
vt 0.354847 0.711887
vt 0.342521 0.711888
vt 0.757478 0.526623
vt 0.657136 0.526623
vt 0.657150 0.526623
vt 0.757464 0.526623
vt 0.652323 0.718141
vt 0.649642 0.718141
vt 0.649642 0.718141
vt 0.581664 0.467521
vt 0.603701 0.467521
vt 0.603701 0.479847
vt 0.581664 0.479847
vt 0.667777 0.723377
vt 0.657060 0.723377
vt 0.657060 0.723377
vt 0.667777 0.723377
vt 0.645629 0.730105
vt 0.651773 0.730105
vt 0.653372 0.726528
vt 0.647373 0.726529
vt 0.654356 0.730105
vt 0.664938 0.730106
vt 0.666322 0.726528
vt 0.655957 0.726528
vt 0.653308 0.703826
vt 0.653308 0.714401
vt 0.653308 0.714401
vt 0.649163 0.719477
vt 0.652802 0.719477
vt 0.652478 0.718865
vt 0.649486 0.718865
vt 0.649642 0.700086
vt 0.652322 0.700086
vt 0.652322 0.700086
vt 0.646644 0.716605
vt 0.646753 0.701619
vt 0.647242 0.700661
vt 0.647345 0.717897
vt 0.859892 0.526623
vt 0.858178 0.526623
vt 0.759501 0.526623
vt 0.759514 0.526623
vt 0.859881 0.526623
vt 0.654293 0.716693
vt 0.654288 0.707775
vt 0.653410 0.717128
vt 0.653411 0.712463
vt 0.647676 0.707775
vt 0.647672 0.716692
vt 0.648554 0.712463
vt 0.648555 0.717128
vt 0.657060 0.528489
vt 0.667777 0.528489
vt 0.667777 0.692984
vt 0.657060 0.692984
vt 0.642874 0.702015
vt 0.645435 0.702015
vt 0.645435 0.716213
vt 0.642874 0.716212
vt 0.356819 0.501866
vt 0.364431 0.501866
vt 0.364431 0.711888
vt 0.356819 0.711888
vt 0.859951 0.723377
vt 0.682438 0.723377
vt 0.682438 0.723377
vt 0.649642 0.703826
vt 0.652322 0.703826
vt 0.652322 0.714401
vt 0.649642 0.714401
vt 0.640049 0.528489
vt 0.646583 0.528489
vt 0.646583 0.692984
vt 0.640049 0.692984
vt 0.648554 0.722066
vt 0.653988 0.722066
vt 0.653694 0.721511
vt 0.648554 0.721511
vt 0.648554 0.526623
vt 0.655088 0.526623
vt 0.648554 0.526623
vt 0.639474 0.525824
vt 0.639215 0.524279
vt 0.639596 0.525950
vt 0.640317 0.526262
vt 0.641324 0.523389
vt 0.642091 0.524841
vt 0.639075 0.524850
vt 0.638298 0.523379
vt 0.653807 0.524634
vt 0.648029 0.524634
vt 0.647522 0.523595
vt 0.653342 0.523595
vt 0.757510 0.526623
vt 0.657103 0.526623
vt 0.657116 0.526623
vt 0.757497 0.526623
vt 0.638228 0.527504
vt 0.638370 0.693709
vt 0.637189 0.695293
vt 0.637331 0.525805
vt 0.861630 0.693709
vt 0.861772 0.527504
vt 0.862669 0.525805
vt 0.862811 0.695293
vt 0.623568 0.005650
vt 0.623583 0.034296
vt 0.621555 0.034247
vt 0.621570 0.003724
vt 0.623567 0.752910
vt 0.623567 0.758633
vt 0.621570 0.758560
vt 0.621570 0.751941
vt 0.607433 0.250986
vt 0.618272 0.250986
vt 0.618272 0.451252
vt 0.607433 0.451252
vt 0.625551 0.505827
vt 0.625392 0.709210
vt 0.622292 0.710642
vt 0.622155 0.503605
vt 0.861628 0.722416
vt 0.861630 0.697860
vt 0.862812 0.699449
vt 0.862813 0.724659
vt 0.639574 0.724694
vt 0.645750 0.724694
vt 0.644663 0.726922
vt 0.638397 0.726922
vt 0.682098 0.724694
vt 0.860426 0.724694
vt 0.861603 0.726922
vt 0.681370 0.726922
vt 0.623680 0.253079
vt 0.623680 0.450006
vt 0.621457 0.450731
vt 0.621457 0.251904
vt 0.623680 0.491343
vt 0.623680 0.497047
vt 0.621457 0.498140
vt 0.621457 0.491423
vt 0.638370 0.697860
vt 0.638372 0.722416
vt 0.637187 0.724660
vt 0.637188 0.699449
vt 0.625387 0.713446
vt 0.625358 0.744266
vt 0.622318 0.746241
vt 0.622296 0.714873
vt 0.623680 0.466275
vt 0.623680 0.478100
vt 0.621457 0.479094
vt 0.621457 0.467135
vt 0.623680 0.481760
vt 0.623680 0.487627
vt 0.621457 0.488638
vt 0.621457 0.481834
vt 0.328223 0.501866
vt 0.340550 0.501866
vt 0.340550 0.711887
vt 0.328223 0.711888
vt 0.656633 0.724694
vt 0.667144 0.724694
vt 0.666282 0.726922
vt 0.655637 0.726922
vt 0.623567 0.799958
vt 0.623567 0.996972
vt 0.621570 0.998015
vt 0.621570 0.799313
vt 0.862024 0.524294
vt 0.860950 0.525859
vt 0.859874 0.526275
vt 0.860760 0.525957
vt 0.645168 0.524634
vt 0.644416 0.524634
vt 0.643867 0.523595
vt 0.644661 0.523595
vt 0.581664 0.750986
vt 0.603701 0.750986
vt 0.603701 0.758598
vt 0.581664 0.758598
vt 0.581664 0.798748
vt 0.603701 0.798748
vt 0.603701 0.999014
vt 0.581664 0.999014
vt 0.376866 0.250986
vt 0.577932 0.250986
vt 0.577932 0.451252
vt 0.376866 0.451252
vt 0.376866 0.770153
vt 0.577932 0.770153
vt 0.577932 0.782479
vt 0.376866 0.782479
vt 0.376866 0.001866
vt 0.577932 0.001866
vt 0.577932 0.034380
vt 0.376866 0.034380
vt 0.366402 0.501866
vt 0.374014 0.501866
vt 0.374014 0.711888
vt 0.366402 0.711888
vt 0.376866 0.481819
vt 0.577932 0.481819
vt 0.577932 0.489431
vt 0.376866 0.489431
vt 0.376866 0.491402
vt 0.577932 0.491402
vt 0.577932 0.499014
vt 0.376866 0.499014
vt 0.366402 0.715620
vt 0.374014 0.715620
vt 0.374014 0.748134
vt 0.366402 0.748134
vt 0.607433 0.467521
vt 0.618272 0.467521
vt 0.618272 0.479847
vt 0.607433 0.479847
vt 0.607433 0.798748
vt 0.618272 0.798748
vt 0.618272 0.999014
vt 0.607433 0.999014
vt 0.607434 0.715620
vt 0.618272 0.715620
vt 0.618272 0.748134
vt 0.607433 0.748134
vt 0.607433 0.038112
vt 0.618272 0.038112
vt 0.618272 0.248134
vt 0.607434 0.248134
vt 0.607433 0.770153
vt 0.618272 0.770153
vt 0.618272 0.782479
vt 0.607433 0.782479
vt 0.581664 0.001866
vt 0.603701 0.001866
vt 0.603701 0.034380
vt 0.581664 0.034380
vt 0.607434 0.501866
vt 0.618272 0.501866
vt 0.618272 0.711888
vt 0.607434 0.711888
vt 0.635510 0.701917
vt 0.635509 0.727466
vt 0.637398 0.723890
vt 0.637398 0.699376
vt 0.607434 0.491402
vt 0.618272 0.491402
vt 0.618272 0.499014
vt 0.607433 0.499014
vt 0.607434 0.750986
vt 0.618272 0.750986
vt 0.618272 0.758598
vt 0.607433 0.758598
vt 0.645719 0.699553
vt 0.642591 0.699553
vt 0.642126 0.698673
vt 0.646184 0.698673
vt 0.328223 0.715620
vt 0.340550 0.715620
vt 0.340550 0.748134
vt 0.328223 0.748134
vt 0.581664 0.715620
vt 0.603701 0.715620
vt 0.603701 0.748134
vt 0.581664 0.748134
vt 0.603383 0.797762
vt 0.581983 0.797762
vt 0.582190 0.797762
vt 0.603175 0.797762
vt 0.623586 0.040790
vt 0.623680 0.244173
vt 0.621458 0.246395
vt 0.621552 0.039358
vt 0.623680 0.452157
vt 0.623680 0.464055
vt 0.621457 0.464915
vt 0.621457 0.452883
vt 0.669363 0.724694
vt 0.679947 0.724694
vt 0.679220 0.726922
vt 0.668501 0.726922
vt 0.682438 0.696717
vt 0.859951 0.696717
vt 0.859951 0.721511
vt 0.682438 0.721511
vt 0.680466 0.723377
vt 0.669749 0.723377
vt 0.669749 0.723377
vt 0.680466 0.723377
vt 0.376866 0.798748
vt 0.577932 0.798748
vt 0.577932 0.999014
vt 0.376866 0.999014
vt 0.376866 0.038112
vt 0.577932 0.038112
vt 0.577932 0.248134
vt 0.376866 0.248134
vt 0.623567 0.785904
vt 0.623567 0.797780
vt 0.621570 0.797136
vt 0.621570 0.785140
vt 0.623567 0.771855
vt 0.623567 0.783648
vt 0.621570 0.782885
vt 0.621570 0.770972
vt 0.605567 0.784629
vt 0.605567 0.796598
vt 0.605567 0.796490
vt 0.605567 0.784737
vt 0.376866 0.784450
vt 0.577932 0.784450
vt 0.577932 0.796777
vt 0.376866 0.796777
vt 0.654868 0.521605
vt 0.666584 0.521605
vt 0.679608 0.521605
vt 0.862535 0.521605
vt 0.862512 0.521605
vt 0.858087 0.521605
vt 0.654895 0.521605
vt 0.654879 0.521605
vt 0.667381 0.730104
vt 0.678098 0.730106
vt 0.679265 0.726528
vt 0.668766 0.726528
vt 0.664878 0.519739
vt 0.654287 0.519739
vt 0.648468 0.506728
vt 0.659846 0.506728
vt 0.655382 0.719427
vt 0.655382 0.698800
vt 0.655088 0.699356
vt 0.655088 0.718872
vt 0.648554 0.528489
vt 0.655088 0.528489
vt 0.655088 0.692984
vt 0.648554 0.692984
vt 0.605567 0.770251
vt 0.605567 0.782381
vt 0.605567 0.782264
vt 0.605567 0.770368
vt 0.645556 0.730239
vt 0.651719 0.730239
vt 0.645856 0.743349
vt 0.639162 0.743349
vt 0.623567 0.762331
vt 0.623567 0.768218
vt 0.621570 0.768152
vt 0.621570 0.761435
vt 0.648103 0.724694
vt 0.654337 0.724694
vt 0.653340 0.726922
vt 0.647016 0.726922
vt 0.579798 0.782381
vt 0.579798 0.770251
vt 0.579798 0.770368
vt 0.579798 0.782264
vt 0.607433 0.760569
vt 0.618272 0.760569
vt 0.618272 0.768181
vt 0.607433 0.768181
vt 0.607433 0.453223
vt 0.618272 0.453223
vt 0.618272 0.465550
vt 0.607433 0.465550
vt 0.581664 0.453223
vt 0.603701 0.453223
vt 0.603701 0.465550
vt 0.581664 0.465550
vt 0.603522 0.783465
vt 0.581843 0.783465
vt 0.582068 0.783465
vt 0.603298 0.783465
vt 0.669749 0.696717
vt 0.680466 0.696717
vt 0.680466 0.721511
vt 0.669749 0.721511
vt 0.678046 0.519739
vt 0.667322 0.519739
vt 0.662289 0.506728
vt 0.673800 0.506728
vt 0.376866 0.453223
vt 0.577932 0.453223
vt 0.577932 0.465550
vt 0.376866 0.465550
vt 0.667325 0.730240
vt 0.678057 0.730240
vt 0.673778 0.743349
vt 0.662254 0.743350
vt 0.669749 0.528489
vt 0.680466 0.528489
vt 0.680466 0.692984
vt 0.669749 0.692984
vt 0.579798 0.796335
vt 0.579798 0.784892
vt 0.579798 0.785020
vt 0.579798 0.796207
vt 0.607433 0.784450
vt 0.618272 0.784450
vt 0.618272 0.796777
vt 0.607433 0.796776
vt 0.579798 0.796598
vt 0.579798 0.784629
vt 0.579798 0.784737
vt 0.579798 0.796490
vt 0.605567 0.784892
vt 0.605567 0.796335
vt 0.605567 0.796207
vt 0.605567 0.785020
vt 0.603006 0.783465
vt 0.582360 0.783465
vt 0.582652 0.783465
vt 0.602714 0.783465
vt 0.342521 0.715620
vt 0.354847 0.715620
vt 0.354847 0.748134
vt 0.342521 0.748134
vt 0.581983 0.783465
vt 0.603383 0.783465
vt 0.603175 0.783465
vt 0.582190 0.783465
vt 0.581843 0.769167
vt 0.603522 0.769167
vt 0.603298 0.769167
vt 0.582068 0.769167
vt 0.582910 0.785108
vt 0.602456 0.785108
vt 0.602456 0.796118
vt 0.582910 0.796118
vt 0.605567 0.770522
vt 0.605567 0.782109
vt 0.605567 0.781957
vt 0.605567 0.770674
vt 0.579798 0.782109
vt 0.579798 0.770522
vt 0.579798 0.770674
vt 0.579798 0.781957
vt 0.582812 0.770759
vt 0.602553 0.770759
vt 0.602553 0.781873
vt 0.582812 0.781873
vt 0.582496 0.783465
vt 0.602870 0.783465
vt 0.602625 0.783465
vt 0.582740 0.783465
vt 0.602870 0.797762
vt 0.582496 0.797762
vt 0.582740 0.797762
vt 0.602625 0.797762
vt 0.582360 0.769167
vt 0.603005 0.769167
vt 0.602714 0.769167
vt 0.582652 0.769167
vt 0.603701 0.501866
vt 0.374014 0.500000
vt 0.375000 0.501866
vt 0.374014 0.750000
vt 0.375000 0.748134
vt 0.603701 0.000000
vt 0.605567 0.000000
vt 0.605567 0.001866
vt 0.125986 0.500000
vt 0.125000 0.501866
vt 0.603701 0.711887
vt 0.125000 0.748134
vt 0.125986 0.750000
vt 0.125000 0.715620
vt 0.125000 0.713754
vt 0.125986 0.713754
vt 0.581664 0.501866
vt 0.355833 0.500000
vt 0.355833 0.501866
vt 0.354847 0.500000
vt 0.354847 0.750000
vt 0.355833 0.748134
vt 0.355833 0.750000
vt 0.579798 0.001866
vt 0.577932 0.000000
vt 0.579798 0.000000
vt 0.365416 0.750000
vt 0.364431 0.750000
vt 0.365416 0.748134
vt 0.581664 0.711888
vt 0.364431 0.500000
vt 0.365416 0.500000
vt 0.365416 0.501866
vt 0.625000 0.753270
vt 0.625000 0.754310
vt 0.624435 0.752244
vt 0.620138 0.751985
vt 0.618272 0.750000
vt 0.620138 0.750748
vt 0.625000 0.995101
vt 0.625000 0.996486
vt 0.624435 0.997756
vt 0.618272 0.000000
vt 0.620138 0.001416
vt 0.620138 0.003759
vt 0.625000 0.495653
vt 0.625000 0.496695
vt 0.624441 0.497727
vt 0.620138 0.499303
vt 0.618272 0.500000
vt 0.620138 0.498096
vt 0.625000 0.243273
vt 0.624442 0.245696
vt 0.625000 0.240634
vt 0.620138 0.248680
vt 0.618272 0.250000
vt 0.620138 0.246395
vt 0.620138 0.035127
vt 0.620138 0.036246
vt 0.618272 0.036246
vt 0.625000 0.035373
vt 0.625000 0.036246
vt 0.624253 0.036246
vt 0.622793 0.770341
vt 0.625000 0.771316
vt 0.625000 0.773427
vt 0.625000 0.476532
vt 0.625000 0.478658
vt 0.623003 0.479552
vt 0.625000 0.486315
vt 0.625000 0.488045
vt 0.622959 0.489040
vt 0.622745 0.760841
vt 0.625000 0.761928
vt 0.625000 0.763650
vt 0.326252 0.500000
vt 0.327238 0.500000
vt 0.327238 0.501866
vt 0.327238 0.748134
vt 0.327238 0.750000
vt 0.326252 0.750000
vt 0.625000 0.799331
vt 0.625000 0.801088
vt 0.622959 0.798673
vt 0.625000 0.448883
vt 0.625000 0.450651
vt 0.623152 0.451254
vt 0.340550 0.500000
vt 0.341535 0.500000
vt 0.341535 0.501866
vt 0.341535 0.748134
vt 0.341535 0.750000
vt 0.340550 0.750000
vt 0.622872 0.784510
vt 0.625000 0.785324
vt 0.625000 0.787254
vt 0.625000 0.464655
vt 0.623074 0.465400
vt 0.625000 0.462711
vt 0.366402 0.750000
vt 0.581664 0.000000
vt 0.625000 0.254948
vt 0.328223 0.500000
vt 0.125000 0.711888
vt 0.356819 0.500000
vt 0.342521 0.750000
vt 0.356819 0.750000
vt 0.366402 0.500000
vt 0.376866 0.000000
vt 0.625000 0.798778
vt 0.622436 0.998800
vt 0.622436 0.751200
vt 0.622219 0.036246
vt 0.625000 0.043264
vt 0.622219 0.247919
vt 0.625000 0.490739
vt 0.622219 0.498901
vt 0.625000 0.008836
vt 0.625000 0.768812
vt 0.625000 0.465154
vt 0.625000 0.481184
vt 0.625000 0.759257
vt 0.607433 0.000000
vt 0.342521 0.500000
vt 0.328223 0.750000
vt 0.625000 0.784820
vt 0.625000 0.451200
s 1
usemtl Material
f 92/1/64 46/2/28 393/3/260 431/4/298
f 89/15/62 196/16/19 236/17/23 15/18/13
f 573/19/333 389/20/256 51/21/33 524/22/89
f 451/23/318 372/24/239 60/25/42 99/26/71
f 392/27/259 452/28/319 98/29/70 52/30/34
f 368/31/235 500/32/333 233/33/89 48/34/30
f 139/35/90 200/36/90 486/37/328 466/38/328
f 349/44/216 360/45/227 205/46/93 208/47/128 70/44/52
f 605/52/79 617/53/27 80/54/27 118/55/79
f 454/56/321 386/57/253 69/58/51 114/59/78
f 96/60/68 59/61/41 420/62/287 439/63/306
f 199/64/90 54/65/36 409/66/276 487/67/328
f 521/68/88 50/69/32 401/70/268 562/71/327
f 376/72/243 455/73/322 113/74/77 73/72/55
f 58/75/40 93/76/65 430/77/297 410/78/277
f 63/89/45 548/90/90 577/91/328 417/92/284
f 49/93/31 232/94/88 494/95/327 394/96/261
f 145/97/93 304/98/189 379/99/246 377/72/244 75/72/57 549/100/342 629/101/361 152/102/99
f 130/103/25 34/104/25 512/105/60 84/106/60
f 7/111/5 105/112/1 197/113/19 88/114/62
f 45/115/27 472/116/330 484/117/330 505/118/27
f 101/119/27 507/120/27 3/121/2 107/122/2
f 229/123/26 38/124/26 12/125/10 123/126/85
f 18/127/15 408/128/275 433/129/300 36/130/25
f 192/131/86 230/132/26 122/133/84 127/134/86
f 85/163/61 511/164/61 520/165/27 535/166/27
f 13/167/11 235/168/24 227/169/26 191/170/86
f 82/175/27 42/176/27 508/177/27 100/178/27
f 168/179/108 243/180/108 193/181/87 126/182/87
f 135/183/88 591/184/88 641/185/327 464/186/327
f 53/187/35 97/188/69 438/189/305 402/190/269
f 363/191/230 447/192/314 172/193/109 177/194/114
f 502/210/335 364/211/231 180/212/117 240/213/131
f 479/214/335 503/215/335 239/216/131 186/217/121
f 79/218/59 540/219/108 542/220/87 28/221/21
f 21/222/17 513/223/80 541/224/108 78/225/59
f 354/234/221 444/235/311 94/236/66 57/237/39
f 446/242/313 350/44/217 72/44/54 173/243/110
f 606/244/80 117/245/80 170/246/108 600/247/108
f 620/255/27 586/256/27 43/257/27 81/258/27
f 610/259/335 480/260/335 190/261/125 636/262/131
f 499/263/333 476/264/333 133/265/89 234/266/89
f 475/267/333 650/268/333 592/269/89 134/270/89
f 116/306/80 223/307/80 244/308/108 171/309/108
f 385/310/252 570/311/335 526/312/131 67/310/49
f 204/325/126 146/326/94 155/326/101 209/327/101
f 351/344/218 445/345/312 441/346/308 353/347/220
f 456/348/323 375/349/242 373/350/240 450/351/317
f 403/352/270 437/353/304 434/354/301 407/355/274
f 395/356/262 493/357/326 490/358/324 397/359/264
f 510/360/61 422/361/289 581/362/330 517/363/27
f 411/364/278 429/365/296 425/366/292 413/367/280
f 387/368/254 453/369/320 449/370/316 391/371/258
f 365/372/232 501/373/334 497/374/332 367/375/234
f 571/376/334 388/377/255 390/378/257 576/379/332
f 418/380/285 580/381/329 582/382/331 421/383/288
f 488/384/329 412/385/279 416/386/283 482/387/331
f 448/388/315 366/389/233 370/390/237 442/391/309
f 432/392/299 396/393/263 400/394/267 426/395/293
f 652/396/329 468/397/329 470/398/331 657/399/331
f 467/400/329 485/401/329 481/402/331 471/403/331
f 516/404/80 603/405/80 599/406/108 538/407/108
f 477/408/334 609/409/334 647/410/332 474/411/332
f 563/412/326 404/413/271 406/414/273 568/415/324
f 238/424/24 32/425/24 39/426/26 228/427/26
f 531/428/339 559/429/347 16/430/14 143/431/14
f 20/432/16 86/433/61 534/434/27 514/435/79
f 124/436/86 121/437/83 613/438/357 622/439/86
f 27/440/20 141/441/15 128/442/25 76/443/58
f 226/444/80 5/445/3 91/446/63 245/447/108
f 115/448/79 83/449/27 103/450/27 224/451/79
f 225/452/79 102/453/27 106/454/2 6/455/4
f 246/456/108 90/457/63 14/458/12 194/459/87
f 585/460/27 658/461/330 469/462/330 44/463/27
f 558/464/346 565/465/325 405/466/272 17/467/14
f 24/468/19 427/469/294 399/470/266 30/471/23
f 37/472/25 436/473/303 423/474/290 509/475/60
f 9/476/7 459/477/325 646/478/325 597/479/353
f 140/480/15 19/481/15 35/482/25 129/483/25
f 1/484/1 414/485/281 428/486/295 23/487/19
f 443/488/310 369/489/236 47/490/29 95/491/67
f 506/492/27 483/493/330 415/494/282 4/495/2
f 31/496/24 398/497/265 489/498/325 40/499/26
f 539/504/108 602/505/108 624/506/87 543/507/87
f 195/508/19 25/509/19 33/510/23 237/511/23
f 560/512/348 530/513/338 673/514/376 665/515/368
f 440/516/307 419/517/286 424/518/291 435/519/302
f 579/520/329 653/521/329 656/522/331 583/523/331
f 608/524/334 572/525/334 575/526/332 648/527/332
f 569/532/335 607/533/335 635/534/131 527/535/131
f 545/536/86 532/537/340 142/538/14 29/539/22
f 77/540/58 131/541/25 87/542/60 22/543/18
f 639/544/326 564/545/326 567/546/324 644/547/324
f 461/548/326 640/549/326 643/550/324 458/551/324
f 593/552/349 556/553/344 664/554/367 662/555/365
f 623/556/86 612/557/356 533/558/341 544/559/86
f 649/568/333 574/569/333 523/570/89 589/571/89
f 625/572/90 136/573/90 465/574/328 651/575/328
f 10/584/8 596/585/352 684/586/387 681/587/384
f 231/588/88 132/589/88 463/590/327 495/591/327
f 496/592/326 462/593/326 457/594/324 491/595/324
f 504/596/334 478/597/334 473/598/332 498/599/332
f 614/600/358 120/601/82 677/602/380 690/603/393
f 41/604/26 492/605/325 460/606/325 8/607/6
f 518/608/27 584/609/330 655/610/330 588/611/27
f 536/612/27 519/613/27 587/614/27 619/615/27
f 595/616/351 615/617/359 689/618/392 685/619/388
f 547/624/90 626/625/90 654/626/328 578/627/328
f 515/628/79 537/629/27 618/630/27 604/631/79
f 590/632/88 522/633/88 561/634/327 642/635/327
f 598/644/354 645/645/325 566/646/325 557/647/345
f 529/648/337 611/649/355 668/650/371 674/651/377
f 601/660/108 169/661/108 125/662/87 621/663/87
f 616/664/360 594/665/350 661/666/364 669/667/372
f 119/668/81 11/669/9 680/670/383 678/671/381
f 1/484/1 2/700/1 3/121/2 4/495/2
f 5/445/3 6/701/4 7/702/5
f 8/607/6 9/476/7 10/584/8 11/669/9 12/125/10
f 13/703/11 14/458/12 15/704/13
f 16/705/14 17/706/14 18/707/15 19/481/15
f 20/708/16 21/222/17 22/709/18
f 23/487/19 24/468/19 25/509/19 26/710/19
f 27/711/20 28/221/21 29/712/22
f 30/471/23 31/496/24 32/425/24 33/510/23
f 34/104/25 35/482/25 36/130/25 37/472/25
f 38/124/26 39/426/26 40/499/26 41/604/26
f 42/176/27 43/257/27 44/463/27 45/115/27
f 46/2/28 47/490/29 48/34/30 49/93/31
f 50/69/32 51/21/33 52/30/34 53/187/35
f 67/310/49 68/530/50 69/58/51
f 70/44/52 71/317/53 72/44/54
f 73/72/55 74/227/56 75/72/57
f 76/713/58 77/714/58 78/715/59 79/218/59
f 80/54/27 81/258/27 82/175/27 83/449/27
f 84/106/60 85/163/61 86/433/61 87/542/60
f 88/114/62 89/15/62 90/457/63 91/446/63
f 92/1/64 93/76/65 94/236/66 95/491/67
f 96/60/68 97/188/69 98/29/70 99/26/71
f 100/178/27 101/119/27 102/453/27 103/450/27
f 104/716/1 105/112/1 106/454/2 107/122/2
f 115/717/79 116/718/80 117/245/80 118/719/79
f 119/668/81 120/601/82 121/437/83 122/133/84 123/126/85
f 124/720/86 125/662/87 126/721/87 127/722/86
f 128/442/25 129/483/25 130/103/25 131/541/25
f 132/589/88 133/265/89 134/270/89 135/183/88
f 140/723/15 141/441/15 142/724/14 143/725/14
f 152/102/99 153/298/100 154/581/100 155/326/101
f 168/179/108 169/661/108 170/246/108 171/309/108
f 172/193/109 173/243/110 174/320/111 175/109/112 176/158/113
f 177/194/114 178/157/115 179/198/116 180/212/117
f 186/217/121 187/323/122 188/579/123 189/51/124 190/261/125
f 191/726/86 192/727/86 193/181/87 194/728/87
f 195/508/19 196/16/19 197/113/19 198/729/19
f 223/307/80 224/730/79 225/731/79 226/732/80
f 227/169/26 228/427/26 229/123/26 230/132/26
f 231/588/88 232/94/88 233/33/89 234/266/89
f 235/168/24 236/17/23 237/511/23 238/424/24
f 239/216/131 240/213/131 241/197/132 242/324/132
f 243/180/108 244/308/108 245/447/108 246/456/108
f 349/44/216 350/44/217 351/344/218 352/328/219
f 363/191/230 364/211/231 365/372/232 366/389/233
f 367/375/234 368/31/235 369/489/236 370/390/237
f 375/349/242 376/72/243 377/72/244 378/417/245
f 385/310/252 386/57/253 387/368/254 388/377/255
f 389/20/256 390/378/257 391/371/258 392/27/259
f 393/733/260 394/734/261 395/356/262 396/735/263
f 397/736/264 398/497/265 399/737/266 400/738/267
f 401/739/268 402/740/269 403/741/270 404/413/271
f 405/742/272 406/743/273 407/744/274 408/128/275
f 409/745/276 410/746/277 411/747/278 412/385/279
f 413/748/280 414/749/281 415/494/282 416/750/283
f 417/751/284 418/752/285 419/517/286 420/753/287
f 421/754/288 422/755/289 423/474/290 424/756/291
f 425/366/292 426/395/293 427/469/294 428/486/295
f 429/365/296 430/77/297 431/4/298 432/392/299
f 433/129/300 434/757/301 435/758/302 436/759/303
f 437/353/304 438/760/305 439/761/306 440/762/307
f 441/346/308 442/391/309 443/488/310 444/235/311
f 445/345/312 446/242/313 447/192/314 448/388/315
f 449/370/316 450/351/317 451/23/318 452/28/319
f 453/369/320 454/56/321 455/73/322 456/348/323
f 457/594/324 458/551/324 459/477/325 460/606/325
f 461/548/326 462/763/326 463/764/327 464/765/327
f 465/766/328 466/767/328 467/768/329 468/397/329
f 469/462/330 470/398/331 471/403/331 472/116/330
f 473/598/332 474/411/332 475/267/333 476/264/333
f 477/408/334 478/597/334 479/214/335 480/260/335
f 481/402/331 482/387/331 483/493/330 484/117/330
f 485/401/329 486/769/328 487/770/328 488/771/329
f 489/498/325 490/358/324 491/595/324 492/605/325
f 493/772/326 494/773/327 495/774/327 496/592/326
f 497/374/332 498/599/332 499/263/333 500/32/333
f 501/373/334 502/210/335 503/215/335 504/596/334
f 505/118/27 506/492/27 507/120/27 508/177/27
f 509/475/60 510/360/61 511/164/61 512/105/60
f 513/223/80 514/775/79 515/776/79 516/777/80
f 517/363/27 518/608/27 519/613/27 520/165/27
f 521/68/88 522/633/88 523/570/89 524/22/89
f 529/648/337 530/513/338 531/428/339 532/537/340 533/558/341
f 534/434/27 535/166/27 536/612/27 537/629/27
f 538/407/108 539/504/108 540/219/108 541/224/108
f 542/220/87 543/778/87 544/779/86 545/780/86
f 549/100/342 550/226/343 551/637/100
f 556/553/344 557/647/345 558/464/346 559/429/347 560/512/348
f 561/781/327 562/782/327 563/412/326 564/783/326
f 565/465/325 566/646/325 567/546/324 568/415/324
f 569/532/335 570/311/335 571/376/334 572/525/334
f 573/19/333 574/569/333 575/526/332 576/379/332
f 577/784/328 578/785/328 579/786/329 580/381/329
f 581/362/330 582/382/331 583/523/331 584/609/330
f 585/460/27 586/256/27 587/614/27 588/611/27
f 589/571/89 590/632/88 591/184/88 592/269/89
f 593/552/349 594/665/350 595/616/351 596/585/352 597/479/353 598/644/354
f 599/406/108 600/247/108 601/660/108 602/505/108
f 603/405/80 604/787/79 605/788/79 606/789/80
f 607/533/335 608/524/334 609/409/334 610/259/335
f 611/649/355 612/557/356 613/438/357 614/600/358 615/617/359 616/664/360
f 617/53/27 618/630/27 619/615/27 620/255/27
f 621/790/87 622/791/86 623/792/86 624/506/87
f 635/534/131 636/262/131 637/50/336 638/623/336
f 639/544/326 640/793/326 641/794/327 642/795/327
f 643/550/324 644/547/324 645/645/325 646/478/325
f 647/410/332 648/527/332 649/568/333 650/268/333
f 651/796/328 652/797/329 653/521/329 654/798/328
f 655/610/330 656/522/331 657/399/331 658/461/330
f 79/218/59 28/221/21 27/711/20 76/713/58
f 513/223/80 21/222/17 20/708/16 514/775/79
f 45/115/27 505/118/27 508/177/27 42/176/27
f 41/604/26 8/607/6 12/125/10 38/124/26
f 1/484/1 23/487/19 26/710/19 2/700/1
f 123/126/85 12/125/10 11/669/9 119/668/81
f 37/472/25 509/475/60 512/105/60 34/104/25
f 585/460/27 44/463/27 43/257/27 586/256/27
f 194/459/87 14/458/12 13/703/11 191/799/86
f 143/800/14 16/705/14 19/481/15 140/480/15
f 84/106/60 512/105/60 511/164/61 85/163/61
f 91/446/63 5/445/3 7/111/5 88/114/62
f 524/22/89 51/21/33 50/69/32 521/68/88
f 95/491/67 47/490/29 46/2/28 92/1/64
f 99/26/71 60/25/42 59/61/41 96/60/68
f 506/492/27 4/495/2 3/121/2 507/120/27
f 24/468/19 30/471/23 33/510/23 25/509/19
f 100/178/27 508/177/27 507/120/27 101/119/27
f 198/729/19 26/710/19 25/509/19 195/508/19
f 589/571/89 523/570/89 522/633/88 590/632/88
f 598/644/354 557/647/345 556/553/344 593/552/349
f 28/221/21 542/220/87 545/780/86 29/712/22
f 417/801/284 577/784/328 580/381/329 418/380/285
f 510/360/61 517/363/27 520/165/27 511/164/61
f 389/20/256 573/19/333 576/379/332 390/378/257
f 602/505/108 539/504/108 538/407/108 599/406/108
f 603/405/80 516/404/80 515/802/79 604/787/79
f 85/163/61 535/166/27 534/434/27 86/433/61
f 607/533/335 569/532/335 572/525/334 608/524/334
f 611/649/355 529/648/337 533/558/341 612/557/356
f 21/222/17 78/225/59 77/803/58 22/709/18
f 107/122/2 3/121/2 2/700/1 104/716/1
f 18/127/15 36/130/25 35/482/25 19/481/15
f 14/458/12 90/457/63 89/15/62 15/18/13
f 57/237/39 94/236/66 93/76/65 58/75/40
f 52/30/34 98/29/70 97/188/69 53/187/35
f 405/466/272 565/465/325 568/415/324 406/414/273
f 31/496/24 40/499/26 39/426/26 32/425/24
f 101/119/27 107/122/2 106/454/2 102/453/27
f 104/716/1 198/729/19 197/113/19 105/112/1
f 531/428/339 143/431/14 142/538/14 532/537/340
f 620/255/27 81/258/27 80/54/27 617/53/27
f 472/116/330 45/115/27 44/463/27 469/462/330
f 436/473/303 37/472/25 36/130/25 433/129/300
f 492/605/325 41/604/26 40/499/26 489/498/325
f 540/219/108 79/218/59 78/225/59 541/224/108
f 238/424/24 228/427/26 227/169/26 235/168/24
f 223/307/80 116/306/80 115/804/79 224/730/79
f 229/123/26 123/126/85 122/133/84 230/132/26
f 621/663/87 125/662/87 124/720/86 622/805/86
f 237/511/23 33/510/23 32/425/24 238/424/24
f 234/266/89 133/265/89 132/589/88 231/588/88
f 22/543/18 87/542/60 86/433/61 20/432/16
f 243/180/108 168/179/108 171/309/108 244/308/108
f 116/306/80 171/309/108 170/246/108 117/245/80
f 145/97/93 152/102/99 155/326/101 146/326/94
f 224/451/79 103/450/27 102/453/27 225/452/79
f 140/480/15 129/483/25 128/442/25 141/441/15
f 130/103/25 84/106/60 87/542/60 131/541/25
f 82/175/27 100/178/27 103/450/27 83/449/27
f 168/179/108 126/182/87 125/662/87 169/661/108
f 195/508/19 237/511/23 236/17/23 196/16/19
f 6/455/4 106/454/2 105/112/1 7/111/5
f 126/182/87 193/181/87 192/727/86 127/806/86
f 42/176/27 82/175/27 81/258/27 43/257/27
f 5/445/3 226/444/80 225/807/79 6/701/4
f 558/464/346 17/467/14 16/430/14 559/429/347
f 48/34/30 233/33/89 232/94/88 49/93/31
f 90/457/63 246/456/108 245/447/108 91/446/63
f 29/808/22 142/724/14 141/441/15 27/440/20
f 88/114/62 197/113/19 196/16/19 89/15/62
f 38/124/26 229/123/26 228/427/26 39/426/26
f 204/325/126 209/327/101 208/47/128 205/46/93
f 226/444/80 245/447/108 244/308/108 223/307/80
f 127/134/86 122/133/84 121/437/83 124/436/86
f 34/104/25 130/103/25 129/483/25 35/482/25
f 246/456/108 194/459/87 193/181/87 243/180/108
f 15/18/13 236/17/23 235/168/24 13/167/11
f 642/795/327 561/809/327 564/545/326 639/544/326
f 360/45/227 349/44/216 352/328/219 361/331/228
f 377/72/244 379/99/246 381/418/248 378/417/245
f 457/594/324 462/593/326 461/548/326 458/551/324
f 562/782/327 401/739/268 404/413/271 563/412/326
f 403/741/270 407/810/274 406/414/273 404/413/271
f 646/478/325 459/477/325 458/551/324 643/550/324
f 425/366/292 429/365/296 432/392/299 426/395/293
f 431/4/298 393/3/260 396/393/263 432/392/299
f 395/356/262 397/359/264 400/811/267 396/735/263
f 399/470/266 427/469/294 426/395/293 400/394/267
f 434/354/301 437/353/304 440/762/307 435/812/302
f 439/813/306 420/753/287 419/517/286 440/516/307
f 418/752/285 421/814/288 424/518/291 419/517/286
f 423/474/290 436/473/303 435/519/302 424/518/291
f 481/402/331 485/401/329 488/384/329 482/387/331
f 487/815/328 409/745/276 412/385/279 488/384/329
f 411/747/278 413/816/280 416/386/283 412/385/279
f 415/494/282 483/493/330 482/387/331 416/386/283
f 473/598/332 478/597/334 477/408/334 474/411/332
f 570/311/335 385/310/252 388/377/255 571/376/334
f 387/368/254 391/371/258 390/378/257 388/377/255
f 650/268/333 475/267/333 474/411/332 647/410/332
f 441/346/308 445/345/312 448/388/315 442/391/309
f 447/192/314 363/191/230 366/389/233 448/388/315
f 365/372/232 367/375/234 370/390/237 366/389/233
f 369/489/236 443/488/310 442/391/309 370/390/237
f 449/370/316 453/369/320 456/348/323 450/351/317
f 455/73/322 376/72/243 375/349/242 456/348/323
f 372/24/239 451/23/318 450/351/317 373/350/240
f 410/78/277 430/77/297 429/365/296 411/364/278
f 428/486/295 414/485/281 413/367/280 425/366/292
f 402/817/269 438/760/305 437/353/304 403/352/270
f 433/129/300 408/128/275 407/355/274 434/354/301
f 350/44/217 446/242/313 445/345/312 351/344/218
f 444/235/311 354/234/221 353/347/220 441/346/308
f 386/57/253 454/56/321 453/369/320 387/368/254
f 452/28/319 392/27/259 391/371/258 449/370/316
f 490/358/324 493/357/326 496/592/326 491/595/324
f 495/774/327 463/818/327 462/593/326 496/592/326
f 460/606/325 492/605/325 491/595/324 457/594/324
f 651/819/328 465/766/328 468/397/329 652/396/329
f 467/400/329 471/403/331 470/398/331 468/397/329
f 581/362/330 422/361/289 421/383/288 582/382/331
f 497/374/332 501/373/334 504/596/334 498/599/332
f 503/215/335 479/214/335 478/597/334 504/596/334
f 476/264/333 499/263/333 498/599/332 473/598/332
f 466/820/328 486/769/328 485/401/329 467/400/329
f 484/117/330 472/116/330 471/403/331 481/402/331
f 394/734/261 494/821/327 493/357/326 395/356/262
f 489/498/325 398/497/265 397/359/264 490/358/324
f 364/211/231 502/210/335 501/373/334 365/372/232
f 500/32/333 368/31/235 367/375/234 497/374/332
f 72/44/54 350/44/217 349/44/216 70/44/52
f 172/193/109 447/192/314 446/242/313 173/243/110
f 443/488/310 95/491/67 94/236/66 444/235/311
f 180/212/117 364/211/231 363/191/230 177/194/114
f 368/31/235 48/34/30 47/490/29 369/489/236
f 239/216/131 503/215/335 502/210/335 240/213/131
f 499/263/333 234/266/89 233/33/89 500/32/333
f 75/72/57 377/72/244 376/72/243 73/72/55
f 454/56/321 114/59/78 113/74/77 455/73/322
f 98/29/70 452/28/319 451/23/318 99/26/71
f 69/58/51 386/57/253 385/310/252 67/310/49
f 479/214/335 186/217/121 190/261/125 480/260/335
f 133/265/89 476/264/333 475/267/333 134/270/89
f 392/27/259 52/30/34 51/21/33 389/20/256
f 30/471/23 399/470/266 398/497/265 31/496/24
f 230/132/26 192/131/86 191/170/86 227/169/26
f 23/487/19 428/486/295 427/469/294 24/468/19
f 430/77/297 93/76/65 92/1/64 431/4/298
f 49/93/31 394/96/261 393/3/260 46/2/28
f 231/588/88 495/591/327 494/95/327 232/94/88
f 17/822/14 405/742/272 408/128/275 18/127/15
f 131/541/25 77/540/58 76/443/58 128/442/25
f 8/607/6 460/606/325 459/477/325 9/476/7
f 463/590/327 132/589/88 135/183/88 464/186/327
f 53/187/35 402/190/269 401/70/268 50/69/32
f 96/60/68 439/63/306 438/189/305 97/188/69
f 4/495/2 415/494/282 414/485/281 1/484/1
f 505/118/27 484/117/330 483/493/330 506/492/27
f 486/37/328 200/36/90 199/64/90 487/67/328
f 58/75/40 410/78/277 409/66/276 54/65/36
f 509/475/60 423/474/290 422/361/289 510/360/61
f 83/449/27 115/448/79 118/55/79 80/54/27
f 63/89/45 417/92/284 420/62/287 59/61/41
f 139/35/90 466/38/328 465/574/328 136/573/90
f 655/610/330 584/609/330 583/523/331 656/522/331
f 519/613/27 536/612/27 535/166/27 520/165/27
f 559/429/347 531/428/339 530/513/338 560/512/348
f 537/629/27 515/628/79 514/435/79 534/434/27
f 532/537/340 545/536/86 544/559/86 533/558/341
f 579/520/329 583/523/331 582/382/331 580/381/329
f 571/376/334 576/379/332 575/526/332 572/525/334
f 563/412/326 568/415/324 567/546/324 564/545/326
f 569/532/335 527/535/131 526/312/131 570/311/335
f 573/19/333 524/22/89 523/570/89 574/569/333
f 539/504/108 543/507/87 542/220/87 540/219/108
f 516/404/80 538/407/108 541/224/108 513/223/80
f 565/465/325 558/464/346 557/647/345 566/646/325
f 584/609/330 518/608/27 517/363/27 581/362/330
f 547/624/90 578/627/328 577/91/328 548/90/90
f 521/68/88 562/71/327 561/634/327 522/633/88
f 518/608/27 588/611/27 587/614/27 519/613/27
f 134/270/89 592/269/89 591/184/88 135/183/88
f 9/476/7 597/479/353 596/585/352 10/584/8
f 169/661/108 601/660/108 600/247/108 170/246/108
f 117/245/80 606/244/80 605/823/79 118/719/79
f 480/260/335 610/259/335 609/409/334 477/408/334
f 120/601/82 614/600/358 613/438/357 121/437/83
f 536/612/27 619/615/27 618/630/27 537/629/27
f 543/507/87 624/506/87 623/792/86 544/824/86
f 464/765/327 641/825/327 640/549/326 461/548/326
f 566/646/325 645/645/325 644/547/324 567/546/324
f 574/569/333 649/568/333 648/527/332 575/526/332
f 578/826/328 654/798/328 653/521/329 579/520/329
f 469/462/330 658/461/330 657/399/331 470/398/331
f 590/632/88 642/635/327 641/185/327 591/184/88
f 645/645/325 598/644/354 597/479/353 646/478/325
f 649/568/333 589/571/89 592/269/89 650/268/333
f 639/544/326 644/547/324 643/550/324 640/549/326
f 608/524/334 648/527/332 647/410/332 609/409/334
f 612/557/356 623/556/86 622/439/86 613/438/357
f 594/665/350 616/664/360 615/617/359 595/616/351
f 586/256/27 620/255/27 619/615/27 587/614/27
f 617/53/27 605/52/79 604/631/79 618/630/27
f 652/396/329 657/399/331 656/522/331 653/521/329
f 610/259/335 636/262/131 635/534/131 607/533/335
f 601/660/108 621/663/87 624/506/87 602/505/108
f 606/244/80 600/247/108 599/406/108 603/405/80
f 658/461/330 585/460/27 588/611/27 655/610/330
f 625/572/90 651/575/328 654/626/328 626/625/90
f 662/555/365 664/554/367 663/653/366 659/652/362
f 665/515/368 673/514/376 672/693/375 666/692/369
f 616/664/360 669/667/372 668/650/371 611/649/355
f 673/514/376 530/513/338 529/648/337 674/651/377
f 560/512/348 665/515/368 664/554/367 556/553/344
f 661/666/364 594/665/350 593/552/349 662/555/365
f 678/671/381 680/670/383 679/697/382 675/696/378
f 681/587/384 684/586/387 683/677/386 682/676/385
f 685/619/388 689/618/392 688/657/391 686/656/389
f 10/584/8 681/587/384 680/670/383 11/669/9
f 677/602/380 120/601/82 119/668/81 678/671/381
f 689/618/392 615/617/359 614/600/358 690/603/393
f 684/586/387 596/585/352 595/616/351 685/619/388
f 104/716/1 2/700/1 26/710/19 198/729/19
usemtl Material.001
f 108/11/72 64/12/46 285/13/171 281/14/167
f 181/48/118 634/49/118 637/50/336 189/51/124
f 290/107/176 283/108/169 175/109/112 222/110/130
f 282/155/168 288/156/174 178/157/115 176/158/113
f 166/159/106 250/160/136 292/161/178 263/162/149
f 287/195/173 297/196/183 241/197/132 179/198/116
f 264/206/150 291/207/177 221/208/129 183/209/120
f 550/226/343 74/227/56 112/228/76 555/229/118
f 66/230/48 255/231/141 298/232/184 286/233/172
f 254/238/140 248/239/134 280/240/166 270/241/156
f 148/252/95 251/253/137 269/254/155 272/252/158
f 164/271/104 149/272/96 274/273/160 275/271/161
f 252/274/138 151/275/98 258/276/144 295/277/181
f 247/278/133 165/279/105 277/280/163 278/278/164
f 257/281/143 267/282/153 294/283/180 299/284/185
f 150/290/97 167/291/107 262/292/148 259/293/145
f 249/294/135 253/295/139 300/296/186 293/297/179
f 153/298/100 628/299/100 631/300/118 185/301/118
f 110/302/74 268/303/154 256/304/142 65/305/47
f 279/313/165 276/314/162 273/315/159 271/316/157
f 71/317/53 207/318/127 219/319/118 174/320/111
f 296/321/182 261/322/147 187/323/122 242/324/132
f 266/500/152 109/501/73 284/502/170 289/503/175
f 552/528/118 111/529/75 68/530/50 525/531/336
f 260/576/146 265/577/151 182/578/119 188/579/123
f 210/580/100 154/581/100 184/582/118 220/583/118
f 633/620/118 553/621/118 528/622/336 638/623/336
f 630/636/100 551/637/100 554/638/118 632/639/118
f 64/12/46 65/305/47 66/230/48
f 108/11/72 109/501/73 110/302/74
f 111/529/75 112/228/76 113/74/77 114/59/78
f 148/252/95 149/272/96 150/290/97 151/275/98
f 164/271/104 165/279/105 166/159/106 167/291/107
f 181/48/118 182/578/119 183/209/120 184/582/118 185/301/118
f 207/318/127 208/47/128 209/327/101 210/580/100
f 219/319/118 220/583/118 221/208/129 222/110/130
f 247/278/133 248/239/134 249/294/135 250/160/136
f 251/253/137 252/274/138 253/295/139 254/238/140
f 255/231/141 256/304/142 257/281/143
f 258/276/144 259/293/145 260/576/146 261/322/147
f 262/292/148 263/162/149 264/206/150 265/577/151
f 266/500/152 267/282/153 268/303/154
f 269/254/155 270/241/156 271/316/157
f 272/252/158 273/315/159 274/273/160
f 275/271/161 276/314/162 277/280/163
f 278/278/164 279/313/165 280/240/166
f 281/14/167 282/155/168 283/108/169 284/502/170
f 285/13/171 286/233/172 287/195/173 288/156/174
f 289/503/175 290/107/176 291/207/177 292/161/178 293/297/179 294/283/180
f 295/277/181 296/321/182 297/196/183 298/232/184 299/284/185 300/296/186
f 525/531/336 526/312/131 527/535/131 528/622/336
f 552/528/118 553/621/118 554/638/118 555/229/118
f 628/299/100 629/101/361 630/636/100
f 631/300/118 632/639/118 633/620/118 634/49/118
f 111/529/75 552/528/118 555/229/118 112/228/76
f 525/531/336 68/530/50 67/310/49 526/312/131
f 176/158/113 178/157/115 177/194/114 172/193/109
f 112/228/76 74/227/56 73/72/55 113/74/77
f 207/318/127 71/317/53 70/44/52 208/47/128
f 74/227/56 550/226/343 549/100/342 75/72/57
f 71/317/53 174/320/111 173/243/110 72/44/54
f 68/530/50 111/529/75 114/59/78 69/58/51
f 222/110/130 175/109/112 174/320/111 219/319/118
f 242/324/132 187/323/122 186/217/121 239/216/131
f 628/299/100 153/298/100 152/102/99 629/101/361
f 634/49/118 181/48/118 185/301/118 631/300/118
f 153/298/100 185/301/118 184/582/118 154/581/100
f 181/48/118 189/51/124 188/579/123 182/578/119
f 281/14/167 285/13/171 288/156/174 282/155/168
f 289/503/175 284/502/170 283/108/169 290/107/176
f 295/277/181 258/276/144 261/322/147 296/321/182
f 265/577/151 260/576/146 259/293/145 262/292/148
f 175/109/112 283/108/169 282/155/168 176/158/113
f 287/195/173 179/198/116 178/157/115 288/156/174
f 182/578/119 265/577/151 264/206/150 183/209/120
f 260/576/146 188/579/123 187/323/122 261/322/147
f 154/581/100 210/580/100 209/327/101 155/326/101
f 183/209/120 221/208/129 220/583/118 184/582/118
f 179/198/116 241/197/132 240/213/131 180/212/117
f 263/162/149 292/161/178 291/207/177 264/206/150
f 286/233/172 298/232/184 297/196/183 287/195/173
f 296/321/182 242/324/132 241/197/132 297/196/183
f 290/107/176 222/110/130 221/208/129 291/207/177
f 293/297/179 300/296/186 299/284/185 294/283/180
f 210/580/100 220/583/118 219/319/118 207/318/127
f 251/253/137 148/252/95 151/275/98 252/274/138
f 167/291/107 150/290/97 149/272/96 164/271/104
f 165/279/105 247/278/133 250/160/136 166/159/106
f 248/239/134 254/238/140 253/295/139 249/294/135
f 300/296/186 253/295/139 252/274/138 295/277/181
f 150/290/97 259/293/145 258/276/144 151/275/98
f 166/159/106 263/162/149 262/292/148 167/291/107
f 249/294/135 293/297/179 292/161/178 250/160/136
f 271/316/157 273/315/159 272/252/158 269/254/155
f 275/271/161 274/273/160 273/315/159 276/314/162
f 276/314/162 279/313/165 278/278/164 277/280/163
f 279/313/165 271/316/157 270/241/156 280/240/166
f 164/271/104 275/271/161 277/280/163 165/279/105
f 280/240/166 248/239/134 247/278/133 278/278/164
f 254/238/140 270/241/156 269/254/155 251/253/137
f 274/273/160 149/272/96 148/252/95 272/252/158
f 110/302/74 65/305/47 64/12/46 108/11/72
f 268/303/154 110/302/74 109/501/73 266/500/152
f 65/305/47 256/304/142 255/231/141 66/230/48
f 267/282/153 257/281/143 256/304/142 268/303/154
f 284/502/170 109/501/73 108/11/72 281/14/167
f 66/230/48 286/233/172 285/13/171 64/12/46
f 294/283/180 267/282/153 266/500/152 289/503/175
f 257/281/143 299/284/185 298/232/184 255/231/141
f 638/623/336 528/622/336 527/535/131 635/534/131
f 550/226/343 555/229/118 554/638/118 551/637/100
f 552/528/118 525/531/336 528/622/336 553/621/118
f 551/637/100 630/636/100 629/101/361 549/100/342
f 553/621/118 633/620/118 632/639/118 554/638/118
f 189/51/124 637/50/336 636/262/131 190/261/125
f 633/620/118 638/623/336 637/50/336 634/49/118
f 630/636/100 632/639/118 631/300/118 628/299/100
usemtl Material.002
f 55/5/37 202/6/91 347/7/215 213/8/91 323/9/197 326/10/200
f 357/39/224 355/40/222 56/41/38 328/42/202 336/43/210
f 331/79/205 322/80/196 319/81/193 333/82/207
f 61/83/43 371/84/238 382/85/249 303/86/188 334/87/208 318/88/192
f 346/135/215 343/136/215 159/137/91 214/138/91
f 330/139/204 307/140/103 163/141/103 157/142/90 320/143/194
f 302/144/187 314/145/190 308/146/102 329/147/203 332/148/206
f 147/149/92 203/150/92 342/151/190 215/152/102 161/153/102 312/154/190
f 201/171/91 138/172/91 344/173/215 348/174/215
f 206/199/92 362/200/229 358/201/225 335/202/209 339/203/213 216/204/102 341/205/190
f 313/248/190 310/249/190 160/250/102 309/251/102
f 384/285/251 380/286/247 306/287/92 315/288/190 301/289/187
f 352/328/219 356/329/223 359/330/226 361/331/228
f 325/332/199 340/333/214 337/334/211 327/335/201
f 162/336/103 218/337/103 211/338/90 158/339/90
f 305/340/92 144/341/92 311/342/190 316/343/190
f 374/416/241 378/417/245 381/418/248 383/419/250
f 217/420/103 338/421/212 324/422/198 212/423/90
f 137/560/91 627/561/91 546/562/91 62/563/44 317/564/191 321/565/195 156/566/91 345/567/215
f 54/65/36 55/5/37 56/41/38 57/237/39 58/75/40
f 59/61/41 60/25/42 61/83/43 62/563/44 63/89/45
f 136/573/90 137/560/91 138/172/91 139/35/90
f 144/341/92 145/97/93 146/326/94 147/149/92
f 156/566/91 157/142/90 158/339/90 159/137/91
f 160/250/102 161/153/102 162/336/103 163/141/103
f 199/64/90 200/36/90 201/171/91 202/6/91
f 203/150/92 204/325/126 205/46/93 206/199/92
f 211/338/90 212/423/90 213/8/91 214/138/91
f 215/152/102 216/204/102 217/420/103 218/337/103
f 301/289/187 302/144/187 303/86/188
f 304/98/189 305/340/92 306/287/92
f 307/140/103 308/146/102 309/251/102
f 310/249/190 311/342/190 312/154/190
f 313/248/190 314/145/190 315/288/190 316/343/190
f 317/564/191 318/88/192 319/81/193
f 320/143/194 321/565/195 322/80/196
f 323/9/197 324/422/198 325/332/199
f 326/10/200 327/335/201 328/42/202
f 329/147/203 330/139/204 331/79/205
f 332/148/206 333/82/207 334/87/208
f 335/202/209 336/43/210 337/334/211
f 338/421/212 339/203/213 340/333/214
f 343/136/215 344/173/215 345/567/215
f 346/135/215 347/7/215 348/174/215
f 353/347/220 354/234/221 355/40/222 356/329/223
f 357/39/224 358/201/225 359/330/226
f 360/45/227 361/331/228 362/200/229
f 371/84/238 372/24/239 373/350/240 374/416/241
f 379/99/246 380/286/247 381/418/248
f 382/85/249 383/419/250 384/285/251
f 546/562/91 547/624/90 548/90/90
f 625/572/90 626/625/90 627/561/91
f 202/6/91 55/5/37 54/65/36 199/64/90
f 627/561/91 137/560/91 136/573/90 625/572/90
f 304/98/189 145/97/93 144/341/92 305/340/92
f 309/251/102 160/250/102 163/141/103 307/140/103
f 345/567/215 156/566/91 159/137/91 343/136/215
f 162/336/103 158/339/90 157/142/90 163/141/103
f 312/154/190 161/153/102 160/250/102 310/249/190
f 138/172/91 201/171/91 200/36/90 139/35/90
f 146/326/94 204/325/126 203/150/92 147/149/92
f 158/339/90 211/338/90 214/138/91 159/137/91
f 161/153/102 215/152/102 218/337/103 162/336/103
f 62/563/44 546/562/91 548/90/90 63/89/45
f 346/135/215 214/138/91 213/8/91 347/7/215
f 217/420/103 212/423/90 211/338/90 218/337/103
f 341/205/190 216/204/102 215/152/102 342/151/190
f 147/149/92 312/154/190 311/342/190 144/341/92
f 313/248/190 309/251/102 308/146/102 314/145/190
f 305/340/92 316/343/190 315/288/190 306/287/92
f 314/145/190 302/144/187 301/289/187 315/288/190
f 310/249/190 313/248/190 316/343/190 311/342/190
f 326/10/200 323/9/197 325/332/199 327/335/201
f 324/422/198 338/421/212 340/333/214 325/332/199
f 339/203/213 335/202/209 337/334/211 340/333/214
f 336/43/210 328/42/202 327/335/201 337/334/211
f 332/148/206 329/147/203 331/79/205 333/82/207
f 330/139/204 320/143/194 322/80/196 331/79/205
f 321/565/195 317/564/191 319/81/193 322/80/196
f 318/88/192 334/87/208 333/82/207 319/81/193
f 329/147/203 308/146/102 307/140/103 330/139/204
f 156/566/91 321/565/195 320/143/194 157/142/90
f 317/564/191 62/563/44 61/83/43 318/88/192
f 302/144/187 332/148/206 334/87/208 303/86/188
f 328/42/202 56/41/38 55/5/37 326/10/200
f 212/423/90 324/422/198 323/9/197 213/8/91
f 216/204/102 339/203/213 338/421/212 217/420/103
f 206/199/92 341/205/190 342/151/190 203/150/92
f 137/560/91 345/567/215 344/173/215 138/172/91
f 201/171/91 348/174/215 347/7/215 202/6/91
f 343/136/215 346/135/215 348/174/215 344/173/215
f 351/344/218 353/347/220 356/329/223 352/328/219
f 355/40/222 357/39/224 359/330/226 356/329/223
f 358/201/225 362/200/229 361/331/228 359/330/226
f 382/85/249 371/84/238 374/416/241 383/419/250
f 373/350/240 375/349/242 378/417/245 374/416/241
f 380/286/247 384/285/251 383/419/250 381/418/248
f 205/46/93 360/45/227 362/200/229 206/199/92
f 357/39/224 336/43/210 335/202/209 358/201/225
f 354/234/221 57/237/39 56/41/38 355/40/222
f 371/84/238 61/83/43 60/25/42 372/24/239
f 306/287/92 380/286/247 379/99/246 304/98/189
f 384/285/251 301/289/187 303/86/188 382/85/249
f 546/562/91 627/561/91 626/625/90 547/624/90
usemtl Material.003
f 671/640/374 667/641/370 709/642/412 712/643/415
f 659/652/362 663/653/366 706/654/409 703/655/406
f 686/656/389 688/657/391 702/658/405 698/659/401
f 711/672/414 704/673/407 708/674/411 713/675/416
f 682/676/385 683/677/386 697/678/400 695/679/398
f 687/680/390 676/681/379 693/682/396 700/683/403
f 692/684/395 696/685/399 699/686/402 701/687/404
f 670/688/373 660/689/363 705/690/408 710/691/413
f 666/692/369 672/693/375 714/694/417 707/695/410
f 675/696/378 679/697/382 694/698/397 691/699/394
f 659/652/362 660/689/363 661/666/364 662/555/365
f 663/653/366 664/554/367 665/515/368 666/692/369
f 667/641/370 668/650/371 669/667/372 670/688/373
f 671/640/374 672/693/375 673/514/376 674/651/377
f 675/696/378 676/681/379 677/602/380 678/671/381
f 679/697/382 680/670/383 681/587/384 682/676/385
f 683/677/386 684/586/387 685/619/388 686/656/389
f 687/680/390 688/657/391 689/618/392 690/603/393
f 691/699/394 692/684/395 693/682/396
f 694/698/397 695/679/398 696/685/399
f 697/678/400 698/659/401 699/686/402
f 700/683/403 701/687/404 702/658/405
f 703/655/406 704/673/407 705/690/408
f 706/654/409 707/695/410 708/674/411
f 709/642/412 710/691/413 711/672/414
f 712/643/415 713/675/416 714/694/417
f 667/641/370 671/640/374 674/651/377 668/650/371
f 660/689/363 670/688/373 669/667/372 661/666/364
f 676/681/379 687/680/390 690/603/393 677/602/380
f 691/699/394 694/698/397 696/685/399 692/684/395
f 695/679/398 697/678/400 699/686/402 696/685/399
f 692/684/395 701/687/404 700/683/403 693/682/396
f 698/659/401 702/658/405 701/687/404 699/686/402
f 686/656/389 698/659/401 697/678/400 683/677/386
f 694/698/397 679/697/382 682/676/385 695/679/398
f 675/696/378 691/699/394 693/682/396 676/681/379
f 702/658/405 688/657/391 687/680/390 700/683/403
f 703/655/406 706/654/409 708/674/411 704/673/407
f 711/672/414 713/675/416 712/643/415 709/642/412
f 707/695/410 714/694/417 713/675/416 708/674/411
f 704/673/407 711/672/414 710/691/413 705/690/408
f 671/640/374 712/643/415 714/694/417 672/693/375
f 706/654/409 663/653/366 666/692/369 707/695/410
f 705/690/408 660/689/363 659/652/362 703/655/406
f 709/642/412 667/641/370 670/688/373 710/691/413
